<svg xmlns="http://www.w3.org/2000/svg" xmlns:xlink="http://www.w3.org/1999/xlink" width="600" height="400" viewBox="0 0 2400 1600">
<defs>
  <clipPath id="clip700">
    <rect x="0" y="0" width="2400" height="1600"></rect>
  </clipPath>
</defs>
<path clip-path="url(#clip700)" d="
M0 1600 L2400 1600 L2400 0 L0 0  Z
  " fill="#ffffff" fill-rule="evenodd" fill-opacity="1"></path>
<defs>
  <clipPath id="clip701">
    <rect x="480" y="0" width="1681" height="1600"></rect>
  </clipPath>
</defs>
<path clip-path="url(#clip700)" d="
M186.274 1486.45 L2352.76 1486.45 L2352.76 47.2441 L186.274 47.2441  Z
  " fill="#ffffff" fill-rule="evenodd" fill-opacity="1"></path>
<defs>
  <clipPath id="clip702">
    <rect x="186" y="47" width="2167" height="1440"></rect>
  </clipPath>
</defs>
<polyline clip-path="url(#clip702)" style="stroke:#000000; stroke-linecap:butt; stroke-linejoin:round; stroke-width:2; stroke-opacity:0.1; fill:none" points="
  230.557,1486.45 230.557,47.2441 
  "></polyline>
<polyline clip-path="url(#clip702)" style="stroke:#000000; stroke-linecap:butt; stroke-linejoin:round; stroke-width:2; stroke-opacity:0.1; fill:none" points="
  656.36,1486.45 656.36,47.2441 
  "></polyline>
<polyline clip-path="url(#clip702)" style="stroke:#000000; stroke-linecap:butt; stroke-linejoin:round; stroke-width:2; stroke-opacity:0.1; fill:none" points="
  1082.16,1486.45 1082.16,47.2441 
  "></polyline>
<polyline clip-path="url(#clip702)" style="stroke:#000000; stroke-linecap:butt; stroke-linejoin:round; stroke-width:2; stroke-opacity:0.1; fill:none" points="
  1507.96,1486.45 1507.96,47.2441 
  "></polyline>
<polyline clip-path="url(#clip702)" style="stroke:#000000; stroke-linecap:butt; stroke-linejoin:round; stroke-width:2; stroke-opacity:0.1; fill:none" points="
  1933.77,1486.45 1933.77,47.2441 
  "></polyline>
<polyline clip-path="url(#clip700)" style="stroke:#000000; stroke-linecap:butt; stroke-linejoin:round; stroke-width:4; stroke-opacity:1; fill:none" points="
  186.274,1486.45 2352.76,1486.45 
  "></polyline>
<polyline clip-path="url(#clip700)" style="stroke:#000000; stroke-linecap:butt; stroke-linejoin:round; stroke-width:4; stroke-opacity:1; fill:none" points="
  230.557,1486.45 230.557,1467.55 
  "></polyline>
<polyline clip-path="url(#clip700)" style="stroke:#000000; stroke-linecap:butt; stroke-linejoin:round; stroke-width:4; stroke-opacity:1; fill:none" points="
  656.36,1486.45 656.36,1467.55 
  "></polyline>
<polyline clip-path="url(#clip700)" style="stroke:#000000; stroke-linecap:butt; stroke-linejoin:round; stroke-width:4; stroke-opacity:1; fill:none" points="
  1082.16,1486.45 1082.16,1467.55 
  "></polyline>
<polyline clip-path="url(#clip700)" style="stroke:#000000; stroke-linecap:butt; stroke-linejoin:round; stroke-width:4; stroke-opacity:1; fill:none" points="
  1507.96,1486.45 1507.96,1467.55 
  "></polyline>
<polyline clip-path="url(#clip700)" style="stroke:#000000; stroke-linecap:butt; stroke-linejoin:round; stroke-width:4; stroke-opacity:1; fill:none" points="
  1933.77,1486.45 1933.77,1467.55 
  "></polyline>
<path clip-path="url(#clip700)" d="M230.557 1517.37 Q226.946 1517.37 225.118 1520.93 Q223.312 1524.47 223.312 1531.6 Q223.312 1538.71 225.118 1542.27 Q226.946 1545.82 230.557 1545.82 Q234.192 1545.82 235.997 1542.27 Q237.826 1538.71 237.826 1531.6 Q237.826 1524.47 235.997 1520.93 Q234.192 1517.37 230.557 1517.37 M230.557 1513.66 Q236.368 1513.66 239.423 1518.27 Q242.502 1522.85 242.502 1531.6 Q242.502 1540.33 239.423 1544.94 Q236.368 1549.52 230.557 1549.52 Q224.747 1549.52 221.669 1544.94 Q218.613 1540.33 218.613 1531.6 Q218.613 1522.85 221.669 1518.27 Q224.747 1513.66 230.557 1513.66 Z" fill="#000000" fill-rule="evenodd" fill-opacity="1"></path><path clip-path="url(#clip700)" d="M635.631 1544.91 L651.95 1544.91 L651.95 1548.85 L630.006 1548.85 L630.006 1544.91 Q632.668 1542.16 637.251 1537.53 Q641.857 1532.88 643.038 1531.53 Q645.283 1529.01 646.163 1527.27 Q647.066 1525.51 647.066 1523.82 Q647.066 1521.07 645.121 1519.33 Q643.2 1517.6 640.098 1517.6 Q637.899 1517.6 635.445 1518.36 Q633.015 1519.13 630.237 1520.68 L630.237 1515.95 Q633.061 1514.82 635.515 1514.24 Q637.969 1513.66 640.006 1513.66 Q645.376 1513.66 648.57 1516.35 Q651.765 1519.03 651.765 1523.52 Q651.765 1525.65 650.955 1527.57 Q650.168 1529.47 648.061 1532.07 Q647.482 1532.74 644.381 1535.95 Q641.279 1539.15 635.631 1544.91 Z" fill="#000000" fill-rule="evenodd" fill-opacity="1"></path><path clip-path="url(#clip700)" d="M661.811 1514.29 L680.167 1514.29 L680.167 1518.22 L666.093 1518.22 L666.093 1526.7 Q667.112 1526.35 668.13 1526.19 Q669.149 1526 670.167 1526 Q675.954 1526 679.334 1529.17 Q682.714 1532.34 682.714 1537.76 Q682.714 1543.34 679.242 1546.44 Q675.769 1549.52 669.45 1549.52 Q667.274 1549.52 665.005 1549.15 Q662.76 1548.78 660.353 1548.04 L660.353 1543.34 Q662.436 1544.47 664.658 1545.03 Q666.88 1545.58 669.357 1545.58 Q673.362 1545.58 675.7 1543.48 Q678.038 1541.37 678.038 1537.76 Q678.038 1534.15 675.7 1532.04 Q673.362 1529.94 669.357 1529.94 Q667.482 1529.94 665.607 1530.35 Q663.755 1530.77 661.811 1531.65 L661.811 1514.29 Z" fill="#000000" fill-rule="evenodd" fill-opacity="1"></path><path clip-path="url(#clip700)" d="M1056.86 1514.29 L1075.22 1514.29 L1075.22 1518.22 L1061.14 1518.22 L1061.14 1526.7 Q1062.16 1526.35 1063.18 1526.19 Q1064.2 1526 1065.22 1526 Q1071 1526 1074.38 1529.17 Q1077.76 1532.34 1077.76 1537.76 Q1077.76 1543.34 1074.29 1546.44 Q1070.82 1549.52 1064.5 1549.52 Q1062.32 1549.52 1060.06 1549.15 Q1057.81 1548.78 1055.4 1548.04 L1055.4 1543.34 Q1057.49 1544.47 1059.71 1545.03 Q1061.93 1545.58 1064.41 1545.58 Q1068.41 1545.58 1070.75 1543.48 Q1073.09 1541.37 1073.09 1537.76 Q1073.09 1534.15 1070.75 1532.04 Q1068.41 1529.94 1064.41 1529.94 Q1062.53 1529.94 1060.66 1530.35 Q1058.81 1530.77 1056.86 1531.65 L1056.86 1514.29 Z" fill="#000000" fill-rule="evenodd" fill-opacity="1"></path><path clip-path="url(#clip700)" d="M1096.98 1517.37 Q1093.37 1517.37 1091.54 1520.93 Q1089.73 1524.47 1089.73 1531.6 Q1089.73 1538.71 1091.54 1542.27 Q1093.37 1545.82 1096.98 1545.82 Q1100.61 1545.82 1102.42 1542.27 Q1104.25 1538.71 1104.25 1531.6 Q1104.25 1524.47 1102.42 1520.93 Q1100.61 1517.37 1096.98 1517.37 M1096.98 1513.66 Q1102.79 1513.66 1105.84 1518.27 Q1108.92 1522.85 1108.92 1531.6 Q1108.92 1540.33 1105.84 1544.94 Q1102.79 1549.52 1096.98 1549.52 Q1091.17 1549.52 1088.09 1544.94 Q1085.03 1540.33 1085.03 1531.6 Q1085.03 1522.85 1088.09 1518.27 Q1091.17 1513.66 1096.98 1513.66 Z" fill="#000000" fill-rule="evenodd" fill-opacity="1"></path><path clip-path="url(#clip700)" d="M1481.82 1514.29 L1504.04 1514.29 L1504.04 1516.28 L1491.49 1548.85 L1486.61 1548.85 L1498.42 1518.22 L1481.82 1518.22 L1481.82 1514.29 Z" fill="#000000" fill-rule="evenodd" fill-opacity="1"></path><path clip-path="url(#clip700)" d="M1513.21 1514.29 L1531.56 1514.29 L1531.56 1518.22 L1517.49 1518.22 L1517.49 1526.7 Q1518.51 1526.35 1519.53 1526.19 Q1520.55 1526 1521.56 1526 Q1527.35 1526 1530.73 1529.17 Q1534.11 1532.34 1534.11 1537.76 Q1534.11 1543.34 1530.64 1546.44 Q1527.17 1549.52 1520.85 1549.52 Q1518.67 1549.52 1516.4 1549.15 Q1514.16 1548.78 1511.75 1548.04 L1511.75 1543.34 Q1513.83 1544.47 1516.05 1545.03 Q1518.28 1545.58 1520.75 1545.58 Q1524.76 1545.58 1527.1 1543.48 Q1529.43 1541.37 1529.43 1537.76 Q1529.43 1534.15 1527.1 1532.04 Q1524.76 1529.94 1520.75 1529.94 Q1518.88 1529.94 1517 1530.35 Q1515.15 1530.77 1513.21 1531.65 L1513.21 1514.29 Z" fill="#000000" fill-rule="evenodd" fill-opacity="1"></path><path clip-path="url(#clip700)" d="M1893.37 1544.91 L1901.01 1544.91 L1901.01 1518.55 L1892.7 1520.21 L1892.7 1515.95 L1900.97 1514.29 L1905.64 1514.29 L1905.64 1544.91 L1913.28 1544.91 L1913.28 1548.85 L1893.37 1548.85 L1893.37 1544.91 Z" fill="#000000" fill-rule="evenodd" fill-opacity="1"></path><path clip-path="url(#clip700)" d="M1932.72 1517.37 Q1929.11 1517.37 1927.29 1520.93 Q1925.48 1524.47 1925.48 1531.6 Q1925.48 1538.71 1927.29 1542.27 Q1929.11 1545.82 1932.72 1545.82 Q1936.36 1545.82 1938.16 1542.27 Q1939.99 1538.71 1939.99 1531.6 Q1939.99 1524.47 1938.16 1520.93 Q1936.36 1517.37 1932.72 1517.37 M1932.72 1513.66 Q1938.53 1513.66 1941.59 1518.27 Q1944.67 1522.85 1944.67 1531.6 Q1944.67 1540.33 1941.59 1544.94 Q1938.53 1549.52 1932.72 1549.52 Q1926.91 1549.52 1923.84 1544.94 Q1920.78 1540.33 1920.78 1531.6 Q1920.78 1522.85 1923.84 1518.27 Q1926.91 1513.66 1932.72 1513.66 Z" fill="#000000" fill-rule="evenodd" fill-opacity="1"></path><path clip-path="url(#clip700)" d="M1962.89 1517.37 Q1959.28 1517.37 1957.45 1520.93 Q1955.64 1524.47 1955.64 1531.6 Q1955.64 1538.71 1957.45 1542.27 Q1959.28 1545.82 1962.89 1545.82 Q1966.52 1545.82 1968.33 1542.27 Q1970.16 1538.71 1970.16 1531.6 Q1970.16 1524.47 1968.33 1520.93 Q1966.52 1517.37 1962.89 1517.37 M1962.89 1513.66 Q1968.7 1513.66 1971.75 1518.27 Q1974.83 1522.85 1974.83 1531.6 Q1974.83 1540.33 1971.75 1544.94 Q1968.7 1549.52 1962.89 1549.52 Q1957.08 1549.52 1954 1544.94 Q1950.94 1540.33 1950.94 1531.6 Q1950.94 1522.85 1954 1518.27 Q1957.08 1513.66 1962.89 1513.66 Z" fill="#000000" fill-rule="evenodd" fill-opacity="1"></path><polyline clip-path="url(#clip702)" style="stroke:#000000; stroke-linecap:butt; stroke-linejoin:round; stroke-width:2; stroke-opacity:0.1; fill:none" points="
  186.274,1465.25 2352.76,1465.25 
  "></polyline>
<polyline clip-path="url(#clip702)" style="stroke:#000000; stroke-linecap:butt; stroke-linejoin:round; stroke-width:2; stroke-opacity:0.1; fill:none" points="
  186.274,1120.93 2352.76,1120.93 
  "></polyline>
<polyline clip-path="url(#clip702)" style="stroke:#000000; stroke-linecap:butt; stroke-linejoin:round; stroke-width:2; stroke-opacity:0.1; fill:none" points="
  186.274,776.613 2352.76,776.613 
  "></polyline>
<polyline clip-path="url(#clip702)" style="stroke:#000000; stroke-linecap:butt; stroke-linejoin:round; stroke-width:2; stroke-opacity:0.1; fill:none" points="
  186.274,432.295 2352.76,432.295 
  "></polyline>
<polyline clip-path="url(#clip702)" style="stroke:#000000; stroke-linecap:butt; stroke-linejoin:round; stroke-width:2; stroke-opacity:0.1; fill:none" points="
  186.274,87.9763 2352.76,87.9763 
  "></polyline>
<polyline clip-path="url(#clip700)" style="stroke:#000000; stroke-linecap:butt; stroke-linejoin:round; stroke-width:4; stroke-opacity:1; fill:none" points="
  186.274,1486.45 186.274,47.2441 
  "></polyline>
<polyline clip-path="url(#clip700)" style="stroke:#000000; stroke-linecap:butt; stroke-linejoin:round; stroke-width:4; stroke-opacity:1; fill:none" points="
  186.274,1465.25 205.172,1465.25 
  "></polyline>
<polyline clip-path="url(#clip700)" style="stroke:#000000; stroke-linecap:butt; stroke-linejoin:round; stroke-width:4; stroke-opacity:1; fill:none" points="
  186.274,1120.93 205.172,1120.93 
  "></polyline>
<polyline clip-path="url(#clip700)" style="stroke:#000000; stroke-linecap:butt; stroke-linejoin:round; stroke-width:4; stroke-opacity:1; fill:none" points="
  186.274,776.613 205.172,776.613 
  "></polyline>
<polyline clip-path="url(#clip700)" style="stroke:#000000; stroke-linecap:butt; stroke-linejoin:round; stroke-width:4; stroke-opacity:1; fill:none" points="
  186.274,432.295 205.172,432.295 
  "></polyline>
<polyline clip-path="url(#clip700)" style="stroke:#000000; stroke-linecap:butt; stroke-linejoin:round; stroke-width:4; stroke-opacity:1; fill:none" points="
  186.274,87.9763 205.172,87.9763 
  "></polyline>
<path clip-path="url(#clip700)" d="M62.9365 1451.05 Q59.3254 1451.05 57.4967 1454.61 Q55.6912 1458.15 55.6912 1465.28 Q55.6912 1472.39 57.4967 1475.96 Q59.3254 1479.5 62.9365 1479.5 Q66.5707 1479.5 68.3763 1475.96 Q70.205 1472.39 70.205 1465.28 Q70.205 1458.15 68.3763 1454.61 Q66.5707 1451.05 62.9365 1451.05 M62.9365 1447.34 Q68.7467 1447.34 71.8022 1451.95 Q74.8809 1456.53 74.8809 1465.28 Q74.8809 1474.01 71.8022 1478.62 Q68.7467 1483.2 62.9365 1483.2 Q57.1264 1483.2 54.0477 1478.62 Q50.9921 1474.01 50.9921 1465.28 Q50.9921 1456.53 54.0477 1451.95 Q57.1264 1447.34 62.9365 1447.34 Z" fill="#000000" fill-rule="evenodd" fill-opacity="1"></path><path clip-path="url(#clip700)" d="M83.0984 1476.65 L87.9827 1476.65 L87.9827 1482.53 L83.0984 1482.53 L83.0984 1476.65 Z" fill="#000000" fill-rule="evenodd" fill-opacity="1"></path><path clip-path="url(#clip700)" d="M108.168 1451.05 Q104.557 1451.05 102.728 1454.61 Q100.922 1458.15 100.922 1465.28 Q100.922 1472.39 102.728 1475.96 Q104.557 1479.5 108.168 1479.5 Q111.802 1479.5 113.608 1475.96 Q115.436 1472.39 115.436 1465.28 Q115.436 1458.15 113.608 1454.61 Q111.802 1451.05 108.168 1451.05 M108.168 1447.34 Q113.978 1447.34 117.033 1451.95 Q120.112 1456.53 120.112 1465.28 Q120.112 1474.01 117.033 1478.62 Q113.978 1483.2 108.168 1483.2 Q102.358 1483.2 99.2789 1478.62 Q96.2234 1474.01 96.2234 1465.28 Q96.2234 1456.53 99.2789 1451.95 Q102.358 1447.34 108.168 1447.34 Z" fill="#000000" fill-rule="evenodd" fill-opacity="1"></path><path clip-path="url(#clip700)" d="M138.33 1451.05 Q134.719 1451.05 132.89 1454.61 Q131.084 1458.15 131.084 1465.28 Q131.084 1472.39 132.89 1475.96 Q134.719 1479.5 138.33 1479.5 Q141.964 1479.5 143.769 1475.96 Q145.598 1472.39 145.598 1465.28 Q145.598 1458.15 143.769 1454.61 Q141.964 1451.05 138.33 1451.05 M138.33 1447.34 Q144.14 1447.34 147.195 1451.95 Q150.274 1456.53 150.274 1465.28 Q150.274 1474.01 147.195 1478.62 Q144.14 1483.2 138.33 1483.2 Q132.519 1483.2 129.441 1478.62 Q126.385 1474.01 126.385 1465.28 Q126.385 1456.53 129.441 1451.95 Q132.519 1447.34 138.33 1447.34 Z" fill="#000000" fill-rule="evenodd" fill-opacity="1"></path><path clip-path="url(#clip700)" d="M63.9319 1106.73 Q60.3208 1106.73 58.4921 1110.29 Q56.6865 1113.84 56.6865 1120.97 Q56.6865 1128.07 58.4921 1131.64 Q60.3208 1135.18 63.9319 1135.18 Q67.5661 1135.18 69.3717 1131.64 Q71.2004 1128.07 71.2004 1120.97 Q71.2004 1113.84 69.3717 1110.29 Q67.5661 1106.73 63.9319 1106.73 M63.9319 1103.03 Q69.742 1103.03 72.7976 1107.63 Q75.8763 1112.22 75.8763 1120.97 Q75.8763 1129.69 72.7976 1134.3 Q69.742 1138.88 63.9319 1138.88 Q58.1217 1138.88 55.043 1134.3 Q51.9875 1129.69 51.9875 1120.97 Q51.9875 1112.22 55.043 1107.63 Q58.1217 1103.03 63.9319 1103.03 Z" fill="#000000" fill-rule="evenodd" fill-opacity="1"></path><path clip-path="url(#clip700)" d="M84.0938 1132.33 L88.978 1132.33 L88.978 1138.21 L84.0938 1138.21 L84.0938 1132.33 Z" fill="#000000" fill-rule="evenodd" fill-opacity="1"></path><path clip-path="url(#clip700)" d="M103.191 1134.28 L119.51 1134.28 L119.51 1138.21 L97.566 1138.21 L97.566 1134.28 Q100.228 1131.52 104.811 1126.89 Q109.418 1122.24 110.598 1120.9 Q112.844 1118.37 113.723 1116.64 Q114.626 1114.88 114.626 1113.19 Q114.626 1110.43 112.682 1108.7 Q110.76 1106.96 107.658 1106.96 Q105.459 1106.96 103.006 1107.73 Q100.575 1108.49 97.7974 1110.04 L97.7974 1105.32 Q100.621 1104.18 103.075 1103.61 Q105.529 1103.03 107.566 1103.03 Q112.936 1103.03 116.131 1105.71 Q119.325 1108.4 119.325 1112.89 Q119.325 1115.02 118.515 1116.94 Q117.728 1118.84 115.621 1121.43 Q115.043 1122.1 111.941 1125.32 Q108.839 1128.51 103.191 1134.28 Z" fill="#000000" fill-rule="evenodd" fill-opacity="1"></path><path clip-path="url(#clip700)" d="M129.371 1103.65 L147.728 1103.65 L147.728 1107.59 L133.654 1107.59 L133.654 1116.06 Q134.672 1115.71 135.691 1115.55 Q136.709 1115.36 137.728 1115.36 Q143.515 1115.36 146.894 1118.54 Q150.274 1121.71 150.274 1127.12 Q150.274 1132.7 146.802 1135.8 Q143.33 1138.88 137.01 1138.88 Q134.834 1138.88 132.566 1138.51 Q130.32 1138.14 127.913 1137.4 L127.913 1132.7 Q129.996 1133.84 132.219 1134.39 Q134.441 1134.95 136.918 1134.95 Q140.922 1134.95 143.26 1132.84 Q145.598 1130.73 145.598 1127.12 Q145.598 1123.51 143.26 1121.41 Q140.922 1119.3 136.918 1119.3 Q135.043 1119.3 133.168 1119.72 Q131.316 1120.13 129.371 1121.01 L129.371 1103.65 Z" fill="#000000" fill-rule="evenodd" fill-opacity="1"></path><path clip-path="url(#clip700)" d="M62.9365 762.412 Q59.3254 762.412 57.4967 765.977 Q55.6912 769.518 55.6912 776.648 Q55.6912 783.754 57.4967 787.319 Q59.3254 790.861 62.9365 790.861 Q66.5707 790.861 68.3763 787.319 Q70.205 783.754 70.205 776.648 Q70.205 769.518 68.3763 765.977 Q66.5707 762.412 62.9365 762.412 M62.9365 758.708 Q68.7467 758.708 71.8022 763.315 Q74.8809 767.898 74.8809 776.648 Q74.8809 785.375 71.8022 789.981 Q68.7467 794.564 62.9365 794.564 Q57.1264 794.564 54.0477 789.981 Q50.9921 785.375 50.9921 776.648 Q50.9921 767.898 54.0477 763.315 Q57.1264 758.708 62.9365 758.708 Z" fill="#000000" fill-rule="evenodd" fill-opacity="1"></path><path clip-path="url(#clip700)" d="M83.0984 788.013 L87.9827 788.013 L87.9827 793.893 L83.0984 793.893 L83.0984 788.013 Z" fill="#000000" fill-rule="evenodd" fill-opacity="1"></path><path clip-path="url(#clip700)" d="M98.2141 759.333 L116.57 759.333 L116.57 763.268 L102.496 763.268 L102.496 771.74 Q103.515 771.393 104.534 771.231 Q105.552 771.046 106.571 771.046 Q112.358 771.046 115.737 774.217 Q119.117 777.389 119.117 782.805 Q119.117 788.384 115.645 791.486 Q112.172 794.564 105.853 794.564 Q103.677 794.564 101.409 794.194 Q99.1632 793.824 96.7558 793.083 L96.7558 788.384 Q98.8391 789.518 101.061 790.074 Q103.284 790.629 105.76 790.629 Q109.765 790.629 112.103 788.523 Q114.441 786.416 114.441 782.805 Q114.441 779.194 112.103 777.088 Q109.765 774.981 105.76 774.981 Q103.885 774.981 102.01 775.398 Q100.159 775.814 98.2141 776.694 L98.2141 759.333 Z" fill="#000000" fill-rule="evenodd" fill-opacity="1"></path><path clip-path="url(#clip700)" d="M138.33 762.412 Q134.719 762.412 132.89 765.977 Q131.084 769.518 131.084 776.648 Q131.084 783.754 132.89 787.319 Q134.719 790.861 138.33 790.861 Q141.964 790.861 143.769 787.319 Q145.598 783.754 145.598 776.648 Q145.598 769.518 143.769 765.977 Q141.964 762.412 138.33 762.412 M138.33 758.708 Q144.14 758.708 147.195 763.315 Q150.274 767.898 150.274 776.648 Q150.274 785.375 147.195 789.981 Q144.14 794.564 138.33 794.564 Q132.519 794.564 129.441 789.981 Q126.385 785.375 126.385 776.648 Q126.385 767.898 129.441 763.315 Q132.519 758.708 138.33 758.708 Z" fill="#000000" fill-rule="evenodd" fill-opacity="1"></path><path clip-path="url(#clip700)" d="M63.9319 418.093 Q60.3208 418.093 58.4921 421.658 Q56.6865 425.2 56.6865 432.329 Q56.6865 439.436 58.4921 443.001 Q60.3208 446.542 63.9319 446.542 Q67.5661 446.542 69.3717 443.001 Q71.2004 439.436 71.2004 432.329 Q71.2004 425.2 69.3717 421.658 Q67.5661 418.093 63.9319 418.093 M63.9319 414.39 Q69.742 414.39 72.7976 418.996 Q75.8763 423.579 75.8763 432.329 Q75.8763 441.056 72.7976 445.663 Q69.742 450.246 63.9319 450.246 Q58.1217 450.246 55.043 445.663 Q51.9875 441.056 51.9875 432.329 Q51.9875 423.579 55.043 418.996 Q58.1217 414.39 63.9319 414.39 Z" fill="#000000" fill-rule="evenodd" fill-opacity="1"></path><path clip-path="url(#clip700)" d="M84.0938 443.695 L88.978 443.695 L88.978 449.575 L84.0938 449.575 L84.0938 443.695 Z" fill="#000000" fill-rule="evenodd" fill-opacity="1"></path><path clip-path="url(#clip700)" d="M97.9826 415.015 L120.205 415.015 L120.205 417.005 L107.658 449.575 L102.774 449.575 L114.58 418.95 L97.9826 418.95 L97.9826 415.015 Z" fill="#000000" fill-rule="evenodd" fill-opacity="1"></path><path clip-path="url(#clip700)" d="M129.371 415.015 L147.728 415.015 L147.728 418.95 L133.654 418.95 L133.654 427.422 Q134.672 427.075 135.691 426.913 Q136.709 426.728 137.728 426.728 Q143.515 426.728 146.894 429.899 Q150.274 433.07 150.274 438.487 Q150.274 444.065 146.802 447.167 Q143.33 450.246 137.01 450.246 Q134.834 450.246 132.566 449.876 Q130.32 449.505 127.913 448.764 L127.913 444.065 Q129.996 445.2 132.219 445.755 Q134.441 446.311 136.918 446.311 Q140.922 446.311 143.26 444.204 Q145.598 442.098 145.598 438.487 Q145.598 434.876 143.26 432.769 Q140.922 430.663 136.918 430.663 Q135.043 430.663 133.168 431.079 Q131.316 431.496 129.371 432.376 L129.371 415.015 Z" fill="#000000" fill-rule="evenodd" fill-opacity="1"></path><path clip-path="url(#clip700)" d="M53.7467 101.321 L61.3856 101.321 L61.3856 74.9555 L53.0754 76.6222 L53.0754 72.3629 L61.3393 70.6963 L66.0152 70.6963 L66.0152 101.321 L73.654 101.321 L73.654 105.256 L53.7467 105.256 L53.7467 101.321 Z" fill="#000000" fill-rule="evenodd" fill-opacity="1"></path><path clip-path="url(#clip700)" d="M83.0984 99.3767 L87.9827 99.3767 L87.9827 105.256 L83.0984 105.256 L83.0984 99.3767 Z" fill="#000000" fill-rule="evenodd" fill-opacity="1"></path><path clip-path="url(#clip700)" d="M108.168 73.775 Q104.557 73.775 102.728 77.3398 Q100.922 80.8814 100.922 88.011 Q100.922 95.1174 102.728 98.6822 Q104.557 102.224 108.168 102.224 Q111.802 102.224 113.608 98.6822 Q115.436 95.1174 115.436 88.011 Q115.436 80.8814 113.608 77.3398 Q111.802 73.775 108.168 73.775 M108.168 70.0713 Q113.978 70.0713 117.033 74.6777 Q120.112 79.261 120.112 88.011 Q120.112 96.7378 117.033 101.344 Q113.978 105.928 108.168 105.928 Q102.358 105.928 99.2789 101.344 Q96.2234 96.7378 96.2234 88.011 Q96.2234 79.261 99.2789 74.6777 Q102.358 70.0713 108.168 70.0713 Z" fill="#000000" fill-rule="evenodd" fill-opacity="1"></path><path clip-path="url(#clip700)" d="M138.33 73.775 Q134.719 73.775 132.89 77.3398 Q131.084 80.8814 131.084 88.011 Q131.084 95.1174 132.89 98.6822 Q134.719 102.224 138.33 102.224 Q141.964 102.224 143.769 98.6822 Q145.598 95.1174 145.598 88.011 Q145.598 80.8814 143.769 77.3398 Q141.964 73.775 138.33 73.775 M138.33 70.0713 Q144.14 70.0713 147.195 74.6777 Q150.274 79.261 150.274 88.011 Q150.274 96.7378 147.195 101.344 Q144.14 105.928 138.33 105.928 Q132.519 105.928 129.441 101.344 Q126.385 96.7378 126.385 88.011 Q126.385 79.261 129.441 74.6777 Q132.519 70.0713 138.33 70.0713 Z" fill="#000000" fill-rule="evenodd" fill-opacity="1"></path><circle clip-path="url(#clip702)" cx="247.59" cy="1445.72" r="14.4" fill="#009af9" fill-rule="evenodd" fill-opacity="1" stroke="#000000" stroke-opacity="1" stroke-width="3.2"></circle>
<circle clip-path="url(#clip702)" cx="264.622" cy="1443.94" r="14.4" fill="#009af9" fill-rule="evenodd" fill-opacity="1" stroke="#000000" stroke-opacity="1" stroke-width="3.2"></circle>
<circle clip-path="url(#clip702)" cx="281.654" cy="1437.99" r="14.4" fill="#009af9" fill-rule="evenodd" fill-opacity="1" stroke="#000000" stroke-opacity="1" stroke-width="3.2"></circle>
<circle clip-path="url(#clip702)" cx="298.686" cy="1434.4" r="14.4" fill="#009af9" fill-rule="evenodd" fill-opacity="1" stroke="#000000" stroke-opacity="1" stroke-width="3.2"></circle>
<circle clip-path="url(#clip702)" cx="315.718" cy="1429.3" r="14.4" fill="#009af9" fill-rule="evenodd" fill-opacity="1" stroke="#000000" stroke-opacity="1" stroke-width="3.2"></circle>
<circle clip-path="url(#clip702)" cx="332.75" cy="1423.89" r="14.4" fill="#009af9" fill-rule="evenodd" fill-opacity="1" stroke="#000000" stroke-opacity="1" stroke-width="3.2"></circle>
<circle clip-path="url(#clip702)" cx="349.782" cy="1426.41" r="14.4" fill="#009af9" fill-rule="evenodd" fill-opacity="1" stroke="#000000" stroke-opacity="1" stroke-width="3.2"></circle>
<circle clip-path="url(#clip702)" cx="366.814" cy="1414.25" r="14.4" fill="#009af9" fill-rule="evenodd" fill-opacity="1" stroke="#000000" stroke-opacity="1" stroke-width="3.2"></circle>
<circle clip-path="url(#clip702)" cx="383.846" cy="1410.43" r="14.4" fill="#009af9" fill-rule="evenodd" fill-opacity="1" stroke="#000000" stroke-opacity="1" stroke-width="3.2"></circle>
<circle clip-path="url(#clip702)" cx="400.878" cy="1409.01" r="14.4" fill="#009af9" fill-rule="evenodd" fill-opacity="1" stroke="#000000" stroke-opacity="1" stroke-width="3.2"></circle>
<circle clip-path="url(#clip702)" cx="417.91" cy="1400.91" r="14.4" fill="#009af9" fill-rule="evenodd" fill-opacity="1" stroke="#000000" stroke-opacity="1" stroke-width="3.2"></circle>
<circle clip-path="url(#clip702)" cx="434.943" cy="1397.56" r="14.4" fill="#009af9" fill-rule="evenodd" fill-opacity="1" stroke="#000000" stroke-opacity="1" stroke-width="3.2"></circle>
<circle clip-path="url(#clip702)" cx="451.975" cy="1396.8" r="14.4" fill="#009af9" fill-rule="evenodd" fill-opacity="1" stroke="#000000" stroke-opacity="1" stroke-width="3.2"></circle>
<circle clip-path="url(#clip702)" cx="469.007" cy="1388.97" r="14.4" fill="#009af9" fill-rule="evenodd" fill-opacity="1" stroke="#000000" stroke-opacity="1" stroke-width="3.2"></circle>
<circle clip-path="url(#clip702)" cx="486.039" cy="1383.65" r="14.4" fill="#009af9" fill-rule="evenodd" fill-opacity="1" stroke="#000000" stroke-opacity="1" stroke-width="3.2"></circle>
<circle clip-path="url(#clip702)" cx="503.071" cy="1378.94" r="14.4" fill="#009af9" fill-rule="evenodd" fill-opacity="1" stroke="#000000" stroke-opacity="1" stroke-width="3.2"></circle>
<circle clip-path="url(#clip702)" cx="520.103" cy="1372.9" r="14.4" fill="#009af9" fill-rule="evenodd" fill-opacity="1" stroke="#000000" stroke-opacity="1" stroke-width="3.2"></circle>
<circle clip-path="url(#clip702)" cx="537.135" cy="1362.29" r="14.4" fill="#009af9" fill-rule="evenodd" fill-opacity="1" stroke="#000000" stroke-opacity="1" stroke-width="3.2"></circle>
<circle clip-path="url(#clip702)" cx="554.167" cy="1355.97" r="14.4" fill="#009af9" fill-rule="evenodd" fill-opacity="1" stroke="#000000" stroke-opacity="1" stroke-width="3.2"></circle>
<circle clip-path="url(#clip702)" cx="571.199" cy="1349.08" r="14.4" fill="#009af9" fill-rule="evenodd" fill-opacity="1" stroke="#000000" stroke-opacity="1" stroke-width="3.2"></circle>
<circle clip-path="url(#clip702)" cx="588.231" cy="1329.25" r="14.4" fill="#009af9" fill-rule="evenodd" fill-opacity="1" stroke="#000000" stroke-opacity="1" stroke-width="3.2"></circle>
<circle clip-path="url(#clip702)" cx="605.263" cy="1320.27" r="14.4" fill="#009af9" fill-rule="evenodd" fill-opacity="1" stroke="#000000" stroke-opacity="1" stroke-width="3.2"></circle>
<circle clip-path="url(#clip702)" cx="622.296" cy="1294.07" r="14.4" fill="#009af9" fill-rule="evenodd" fill-opacity="1" stroke="#000000" stroke-opacity="1" stroke-width="3.2"></circle>
<circle clip-path="url(#clip702)" cx="639.328" cy="1240.37" r="14.4" fill="#009af9" fill-rule="evenodd" fill-opacity="1" stroke="#000000" stroke-opacity="1" stroke-width="3.2"></circle>
<circle clip-path="url(#clip702)" cx="656.36" cy="1246.04" r="14.4" fill="#009af9" fill-rule="evenodd" fill-opacity="1" stroke="#000000" stroke-opacity="1" stroke-width="3.2"></circle>
<circle clip-path="url(#clip702)" cx="673.392" cy="1274.77" r="14.4" fill="#009af9" fill-rule="evenodd" fill-opacity="1" stroke="#000000" stroke-opacity="1" stroke-width="3.2"></circle>
<circle clip-path="url(#clip702)" cx="690.424" cy="1228.56" r="14.4" fill="#009af9" fill-rule="evenodd" fill-opacity="1" stroke="#000000" stroke-opacity="1" stroke-width="3.2"></circle>
<circle clip-path="url(#clip702)" cx="707.456" cy="1188.57" r="14.4" fill="#009af9" fill-rule="evenodd" fill-opacity="1" stroke="#000000" stroke-opacity="1" stroke-width="3.2"></circle>
<circle clip-path="url(#clip702)" cx="724.488" cy="1188.46" r="14.4" fill="#009af9" fill-rule="evenodd" fill-opacity="1" stroke="#000000" stroke-opacity="1" stroke-width="3.2"></circle>
<circle clip-path="url(#clip702)" cx="741.52" cy="1155.96" r="14.4" fill="#009af9" fill-rule="evenodd" fill-opacity="1" stroke="#000000" stroke-opacity="1" stroke-width="3.2"></circle>
<circle clip-path="url(#clip702)" cx="758.552" cy="1189.52" r="14.4" fill="#009af9" fill-rule="evenodd" fill-opacity="1" stroke="#000000" stroke-opacity="1" stroke-width="3.2"></circle>
<circle clip-path="url(#clip702)" cx="775.584" cy="1203.93" r="14.4" fill="#009af9" fill-rule="evenodd" fill-opacity="1" stroke="#000000" stroke-opacity="1" stroke-width="3.2"></circle>
<circle clip-path="url(#clip702)" cx="792.616" cy="1224.17" r="14.4" fill="#009af9" fill-rule="evenodd" fill-opacity="1" stroke="#000000" stroke-opacity="1" stroke-width="3.2"></circle>
<circle clip-path="url(#clip702)" cx="809.649" cy="1187.18" r="14.4" fill="#009af9" fill-rule="evenodd" fill-opacity="1" stroke="#000000" stroke-opacity="1" stroke-width="3.2"></circle>
<circle clip-path="url(#clip702)" cx="826.681" cy="1186.44" r="14.4" fill="#009af9" fill-rule="evenodd" fill-opacity="1" stroke="#000000" stroke-opacity="1" stroke-width="3.2"></circle>
<circle clip-path="url(#clip702)" cx="843.713" cy="1160.07" r="14.4" fill="#009af9" fill-rule="evenodd" fill-opacity="1" stroke="#000000" stroke-opacity="1" stroke-width="3.2"></circle>
<circle clip-path="url(#clip702)" cx="860.745" cy="1127.96" r="14.4" fill="#009af9" fill-rule="evenodd" fill-opacity="1" stroke="#000000" stroke-opacity="1" stroke-width="3.2"></circle>
<circle clip-path="url(#clip702)" cx="877.777" cy="1072.96" r="14.4" fill="#009af9" fill-rule="evenodd" fill-opacity="1" stroke="#000000" stroke-opacity="1" stroke-width="3.2"></circle>
<circle clip-path="url(#clip702)" cx="894.809" cy="1092.73" r="14.4" fill="#009af9" fill-rule="evenodd" fill-opacity="1" stroke="#000000" stroke-opacity="1" stroke-width="3.2"></circle>
<circle clip-path="url(#clip702)" cx="911.841" cy="1077.07" r="14.4" fill="#009af9" fill-rule="evenodd" fill-opacity="1" stroke="#000000" stroke-opacity="1" stroke-width="3.2"></circle>
<circle clip-path="url(#clip702)" cx="928.873" cy="1003.72" r="14.4" fill="#009af9" fill-rule="evenodd" fill-opacity="1" stroke="#000000" stroke-opacity="1" stroke-width="3.2"></circle>
<circle clip-path="url(#clip702)" cx="945.905" cy="1034.11" r="14.4" fill="#009af9" fill-rule="evenodd" fill-opacity="1" stroke="#000000" stroke-opacity="1" stroke-width="3.2"></circle>
<circle clip-path="url(#clip702)" cx="962.937" cy="1039.85" r="14.4" fill="#009af9" fill-rule="evenodd" fill-opacity="1" stroke="#000000" stroke-opacity="1" stroke-width="3.2"></circle>
<circle clip-path="url(#clip702)" cx="979.969" cy="1002.97" r="14.4" fill="#009af9" fill-rule="evenodd" fill-opacity="1" stroke="#000000" stroke-opacity="1" stroke-width="3.2"></circle>
<circle clip-path="url(#clip702)" cx="997.002" cy="950.067" r="14.4" fill="#009af9" fill-rule="evenodd" fill-opacity="1" stroke="#000000" stroke-opacity="1" stroke-width="3.2"></circle>
<circle clip-path="url(#clip702)" cx="1014.03" cy="939.09" r="14.4" fill="#009af9" fill-rule="evenodd" fill-opacity="1" stroke="#000000" stroke-opacity="1" stroke-width="3.2"></circle>
<circle clip-path="url(#clip702)" cx="1031.07" cy="933.02" r="14.4" fill="#009af9" fill-rule="evenodd" fill-opacity="1" stroke="#000000" stroke-opacity="1" stroke-width="3.2"></circle>
<circle clip-path="url(#clip702)" cx="1048.1" cy="895.081" r="14.4" fill="#009af9" fill-rule="evenodd" fill-opacity="1" stroke="#000000" stroke-opacity="1" stroke-width="3.2"></circle>
<circle clip-path="url(#clip702)" cx="1065.13" cy="844.973" r="14.4" fill="#009af9" fill-rule="evenodd" fill-opacity="1" stroke="#000000" stroke-opacity="1" stroke-width="3.2"></circle>
<circle clip-path="url(#clip702)" cx="1082.16" cy="899.701" r="14.4" fill="#009af9" fill-rule="evenodd" fill-opacity="1" stroke="#000000" stroke-opacity="1" stroke-width="3.2"></circle>
<circle clip-path="url(#clip702)" cx="1099.19" cy="859.284" r="14.4" fill="#009af9" fill-rule="evenodd" fill-opacity="1" stroke="#000000" stroke-opacity="1" stroke-width="3.2"></circle>
<circle clip-path="url(#clip702)" cx="1116.23" cy="775.113" r="14.4" fill="#009af9" fill-rule="evenodd" fill-opacity="1" stroke="#000000" stroke-opacity="1" stroke-width="3.2"></circle>
<circle clip-path="url(#clip702)" cx="1133.26" cy="762.179" r="14.4" fill="#009af9" fill-rule="evenodd" fill-opacity="1" stroke="#000000" stroke-opacity="1" stroke-width="3.2"></circle>
<circle clip-path="url(#clip702)" cx="1150.29" cy="741.532" r="14.4" fill="#009af9" fill-rule="evenodd" fill-opacity="1" stroke="#000000" stroke-opacity="1" stroke-width="3.2"></circle>
<circle clip-path="url(#clip702)" cx="1167.32" cy="754.457" r="14.4" fill="#009af9" fill-rule="evenodd" fill-opacity="1" stroke="#000000" stroke-opacity="1" stroke-width="3.2"></circle>
<circle clip-path="url(#clip702)" cx="1184.35" cy="702.432" r="14.4" fill="#009af9" fill-rule="evenodd" fill-opacity="1" stroke="#000000" stroke-opacity="1" stroke-width="3.2"></circle>
<circle clip-path="url(#clip702)" cx="1201.39" cy="661.64" r="14.4" fill="#009af9" fill-rule="evenodd" fill-opacity="1" stroke="#000000" stroke-opacity="1" stroke-width="3.2"></circle>
<circle clip-path="url(#clip702)" cx="1218.42" cy="661.757" r="14.4" fill="#009af9" fill-rule="evenodd" fill-opacity="1" stroke="#000000" stroke-opacity="1" stroke-width="3.2"></circle>
<circle clip-path="url(#clip702)" cx="1235.45" cy="713.314" r="14.4" fill="#009af9" fill-rule="evenodd" fill-opacity="1" stroke="#000000" stroke-opacity="1" stroke-width="3.2"></circle>
<circle clip-path="url(#clip702)" cx="1252.48" cy="674.749" r="14.4" fill="#009af9" fill-rule="evenodd" fill-opacity="1" stroke="#000000" stroke-opacity="1" stroke-width="3.2"></circle>
<circle clip-path="url(#clip702)" cx="1269.51" cy="674.643" r="14.4" fill="#009af9" fill-rule="evenodd" fill-opacity="1" stroke="#000000" stroke-opacity="1" stroke-width="3.2"></circle>
<circle clip-path="url(#clip702)" cx="1286.55" cy="660.266" r="14.4" fill="#009af9" fill-rule="evenodd" fill-opacity="1" stroke="#000000" stroke-opacity="1" stroke-width="3.2"></circle>
<circle clip-path="url(#clip702)" cx="1303.58" cy="643.554" r="14.4" fill="#009af9" fill-rule="evenodd" fill-opacity="1" stroke="#000000" stroke-opacity="1" stroke-width="3.2"></circle>
<circle clip-path="url(#clip702)" cx="1320.61" cy="620.055" r="14.4" fill="#009af9" fill-rule="evenodd" fill-opacity="1" stroke="#000000" stroke-opacity="1" stroke-width="3.2"></circle>
<circle clip-path="url(#clip702)" cx="1337.64" cy="609.585" r="14.4" fill="#009af9" fill-rule="evenodd" fill-opacity="1" stroke="#000000" stroke-opacity="1" stroke-width="3.2"></circle>
<circle clip-path="url(#clip702)" cx="1354.68" cy="590.643" r="14.4" fill="#009af9" fill-rule="evenodd" fill-opacity="1" stroke="#000000" stroke-opacity="1" stroke-width="3.2"></circle>
<circle clip-path="url(#clip702)" cx="1371.71" cy="535.606" r="14.4" fill="#009af9" fill-rule="evenodd" fill-opacity="1" stroke="#000000" stroke-opacity="1" stroke-width="3.2"></circle>
<circle clip-path="url(#clip702)" cx="1388.74" cy="477.889" r="14.4" fill="#009af9" fill-rule="evenodd" fill-opacity="1" stroke="#000000" stroke-opacity="1" stroke-width="3.2"></circle>
<circle clip-path="url(#clip702)" cx="1405.77" cy="443.102" r="14.4" fill="#009af9" fill-rule="evenodd" fill-opacity="1" stroke="#000000" stroke-opacity="1" stroke-width="3.2"></circle>
<circle clip-path="url(#clip702)" cx="1422.8" cy="429.988" r="14.4" fill="#009af9" fill-rule="evenodd" fill-opacity="1" stroke="#000000" stroke-opacity="1" stroke-width="3.2"></circle>
<circle clip-path="url(#clip702)" cx="1439.84" cy="385.253" r="14.4" fill="#009af9" fill-rule="evenodd" fill-opacity="1" stroke="#000000" stroke-opacity="1" stroke-width="3.2"></circle>
<circle clip-path="url(#clip702)" cx="1456.87" cy="404.761" r="14.4" fill="#009af9" fill-rule="evenodd" fill-opacity="1" stroke="#000000" stroke-opacity="1" stroke-width="3.2"></circle>
<circle clip-path="url(#clip702)" cx="1473.9" cy="404.315" r="14.4" fill="#009af9" fill-rule="evenodd" fill-opacity="1" stroke="#000000" stroke-opacity="1" stroke-width="3.2"></circle>
<circle clip-path="url(#clip702)" cx="1490.93" cy="433.319" r="14.4" fill="#009af9" fill-rule="evenodd" fill-opacity="1" stroke="#000000" stroke-opacity="1" stroke-width="3.2"></circle>
<circle clip-path="url(#clip702)" cx="1507.96" cy="481.929" r="14.4" fill="#009af9" fill-rule="evenodd" fill-opacity="1" stroke="#000000" stroke-opacity="1" stroke-width="3.2"></circle>
<circle clip-path="url(#clip702)" cx="1525" cy="526.697" r="14.4" fill="#009af9" fill-rule="evenodd" fill-opacity="1" stroke="#000000" stroke-opacity="1" stroke-width="3.2"></circle>
<circle clip-path="url(#clip702)" cx="1542.03" cy="551.444" r="14.4" fill="#009af9" fill-rule="evenodd" fill-opacity="1" stroke="#000000" stroke-opacity="1" stroke-width="3.2"></circle>
<circle clip-path="url(#clip702)" cx="1559.06" cy="541.286" r="14.4" fill="#009af9" fill-rule="evenodd" fill-opacity="1" stroke="#000000" stroke-opacity="1" stroke-width="3.2"></circle>
<circle clip-path="url(#clip702)" cx="1576.09" cy="489.411" r="14.4" fill="#009af9" fill-rule="evenodd" fill-opacity="1" stroke="#000000" stroke-opacity="1" stroke-width="3.2"></circle>
<circle clip-path="url(#clip702)" cx="1593.12" cy="506.884" r="14.4" fill="#009af9" fill-rule="evenodd" fill-opacity="1" stroke="#000000" stroke-opacity="1" stroke-width="3.2"></circle>
<circle clip-path="url(#clip702)" cx="1610.16" cy="499.191" r="14.4" fill="#009af9" fill-rule="evenodd" fill-opacity="1" stroke="#000000" stroke-opacity="1" stroke-width="3.2"></circle>
<circle clip-path="url(#clip702)" cx="1627.19" cy="504.638" r="14.4" fill="#009af9" fill-rule="evenodd" fill-opacity="1" stroke="#000000" stroke-opacity="1" stroke-width="3.2"></circle>
<circle clip-path="url(#clip702)" cx="1644.22" cy="496.013" r="14.4" fill="#009af9" fill-rule="evenodd" fill-opacity="1" stroke="#000000" stroke-opacity="1" stroke-width="3.2"></circle>
<circle clip-path="url(#clip702)" cx="1661.25" cy="491.627" r="14.4" fill="#009af9" fill-rule="evenodd" fill-opacity="1" stroke="#000000" stroke-opacity="1" stroke-width="3.2"></circle>
<circle clip-path="url(#clip702)" cx="1678.29" cy="467.464" r="14.4" fill="#009af9" fill-rule="evenodd" fill-opacity="1" stroke="#000000" stroke-opacity="1" stroke-width="3.2"></circle>
<circle clip-path="url(#clip702)" cx="1695.32" cy="459.832" r="14.4" fill="#009af9" fill-rule="evenodd" fill-opacity="1" stroke="#000000" stroke-opacity="1" stroke-width="3.2"></circle>
<circle clip-path="url(#clip702)" cx="1712.35" cy="492.471" r="14.4" fill="#009af9" fill-rule="evenodd" fill-opacity="1" stroke="#000000" stroke-opacity="1" stroke-width="3.2"></circle>
<circle clip-path="url(#clip702)" cx="1729.38" cy="529.584" r="14.4" fill="#009af9" fill-rule="evenodd" fill-opacity="1" stroke="#000000" stroke-opacity="1" stroke-width="3.2"></circle>
<circle clip-path="url(#clip702)" cx="1746.41" cy="550.541" r="14.4" fill="#009af9" fill-rule="evenodd" fill-opacity="1" stroke="#000000" stroke-opacity="1" stroke-width="3.2"></circle>
<circle clip-path="url(#clip702)" cx="1763.45" cy="612.056" r="14.4" fill="#009af9" fill-rule="evenodd" fill-opacity="1" stroke="#000000" stroke-opacity="1" stroke-width="3.2"></circle>
<circle clip-path="url(#clip702)" cx="1780.48" cy="640.944" r="14.4" fill="#009af9" fill-rule="evenodd" fill-opacity="1" stroke="#000000" stroke-opacity="1" stroke-width="3.2"></circle>
<circle clip-path="url(#clip702)" cx="1797.51" cy="634.081" r="14.4" fill="#009af9" fill-rule="evenodd" fill-opacity="1" stroke="#000000" stroke-opacity="1" stroke-width="3.2"></circle>
<circle clip-path="url(#clip702)" cx="1814.54" cy="659.384" r="14.4" fill="#009af9" fill-rule="evenodd" fill-opacity="1" stroke="#000000" stroke-opacity="1" stroke-width="3.2"></circle>
<circle clip-path="url(#clip702)" cx="1831.57" cy="697.948" r="14.4" fill="#009af9" fill-rule="evenodd" fill-opacity="1" stroke="#000000" stroke-opacity="1" stroke-width="3.2"></circle>
<circle clip-path="url(#clip702)" cx="1848.61" cy="718.69" r="14.4" fill="#009af9" fill-rule="evenodd" fill-opacity="1" stroke="#000000" stroke-opacity="1" stroke-width="3.2"></circle>
<circle clip-path="url(#clip702)" cx="1865.64" cy="730.115" r="14.4" fill="#009af9" fill-rule="evenodd" fill-opacity="1" stroke="#000000" stroke-opacity="1" stroke-width="3.2"></circle>
<circle clip-path="url(#clip702)" cx="1882.67" cy="738.789" r="14.4" fill="#009af9" fill-rule="evenodd" fill-opacity="1" stroke="#000000" stroke-opacity="1" stroke-width="3.2"></circle>
<circle clip-path="url(#clip702)" cx="1899.7" cy="742.223" r="14.4" fill="#009af9" fill-rule="evenodd" fill-opacity="1" stroke="#000000" stroke-opacity="1" stroke-width="3.2"></circle>
<circle clip-path="url(#clip702)" cx="1916.73" cy="764.61" r="14.4" fill="#009af9" fill-rule="evenodd" fill-opacity="1" stroke="#000000" stroke-opacity="1" stroke-width="3.2"></circle>
<circle clip-path="url(#clip702)" cx="1933.77" cy="806.118" r="14.4" fill="#009af9" fill-rule="evenodd" fill-opacity="1" stroke="#000000" stroke-opacity="1" stroke-width="3.2"></circle>
<circle clip-path="url(#clip702)" cx="1950.8" cy="811.038" r="14.4" fill="#009af9" fill-rule="evenodd" fill-opacity="1" stroke="#000000" stroke-opacity="1" stroke-width="3.2"></circle>
<circle clip-path="url(#clip702)" cx="1967.83" cy="815.09" r="14.4" fill="#009af9" fill-rule="evenodd" fill-opacity="1" stroke="#000000" stroke-opacity="1" stroke-width="3.2"></circle>
<circle clip-path="url(#clip702)" cx="1984.86" cy="821.514" r="14.4" fill="#009af9" fill-rule="evenodd" fill-opacity="1" stroke="#000000" stroke-opacity="1" stroke-width="3.2"></circle>
<circle clip-path="url(#clip702)" cx="2001.89" cy="832.136" r="14.4" fill="#009af9" fill-rule="evenodd" fill-opacity="1" stroke="#000000" stroke-opacity="1" stroke-width="3.2"></circle>
<circle clip-path="url(#clip702)" cx="2018.93" cy="853.813" r="14.4" fill="#009af9" fill-rule="evenodd" fill-opacity="1" stroke="#000000" stroke-opacity="1" stroke-width="3.2"></circle>
<circle clip-path="url(#clip702)" cx="2035.96" cy="884.302" r="14.4" fill="#009af9" fill-rule="evenodd" fill-opacity="1" stroke="#000000" stroke-opacity="1" stroke-width="3.2"></circle>
<circle clip-path="url(#clip702)" cx="2052.99" cy="895.28" r="14.4" fill="#009af9" fill-rule="evenodd" fill-opacity="1" stroke="#000000" stroke-opacity="1" stroke-width="3.2"></circle>
<circle clip-path="url(#clip702)" cx="2070.02" cy="896.62" r="14.4" fill="#009af9" fill-rule="evenodd" fill-opacity="1" stroke="#000000" stroke-opacity="1" stroke-width="3.2"></circle>
<circle clip-path="url(#clip702)" cx="2087.06" cy="903.404" r="14.4" fill="#009af9" fill-rule="evenodd" fill-opacity="1" stroke="#000000" stroke-opacity="1" stroke-width="3.2"></circle>
<circle clip-path="url(#clip702)" cx="2104.09" cy="864.928" r="14.4" fill="#009af9" fill-rule="evenodd" fill-opacity="1" stroke="#000000" stroke-opacity="1" stroke-width="3.2"></circle>
<circle clip-path="url(#clip702)" cx="2121.12" cy="850.616" r="14.4" fill="#009af9" fill-rule="evenodd" fill-opacity="1" stroke="#000000" stroke-opacity="1" stroke-width="3.2"></circle>
<circle clip-path="url(#clip702)" cx="2138.15" cy="829.345" r="14.4" fill="#009af9" fill-rule="evenodd" fill-opacity="1" stroke="#000000" stroke-opacity="1" stroke-width="3.2"></circle>
<circle clip-path="url(#clip702)" cx="2155.18" cy="732.205" r="14.4" fill="#009af9" fill-rule="evenodd" fill-opacity="1" stroke="#000000" stroke-opacity="1" stroke-width="3.2"></circle>
<circle clip-path="url(#clip702)" cx="2172.22" cy="625.003" r="14.4" fill="#009af9" fill-rule="evenodd" fill-opacity="1" stroke="#000000" stroke-opacity="1" stroke-width="3.2"></circle>
<circle clip-path="url(#clip702)" cx="2189.25" cy="479.927" r="14.4" fill="#009af9" fill-rule="evenodd" fill-opacity="1" stroke="#000000" stroke-opacity="1" stroke-width="3.2"></circle>
<circle clip-path="url(#clip702)" cx="2206.28" cy="407.193" r="14.4" fill="#009af9" fill-rule="evenodd" fill-opacity="1" stroke="#000000" stroke-opacity="1" stroke-width="3.2"></circle>
<circle clip-path="url(#clip702)" cx="2223.31" cy="471.345" r="14.4" fill="#009af9" fill-rule="evenodd" fill-opacity="1" stroke="#000000" stroke-opacity="1" stroke-width="3.2"></circle>
<circle clip-path="url(#clip702)" cx="2240.34" cy="416.63" r="14.4" fill="#009af9" fill-rule="evenodd" fill-opacity="1" stroke="#000000" stroke-opacity="1" stroke-width="3.2"></circle>
<circle clip-path="url(#clip702)" cx="2257.38" cy="239.152" r="14.4" fill="#009af9" fill-rule="evenodd" fill-opacity="1" stroke="#000000" stroke-opacity="1" stroke-width="3.2"></circle>
<circle clip-path="url(#clip702)" cx="2274.41" cy="87.9763" r="14.4" fill="#009af9" fill-rule="evenodd" fill-opacity="1" stroke="#000000" stroke-opacity="1" stroke-width="3.2"></circle>
<circle clip-path="url(#clip702)" cx="2291.44" cy="197.31" r="14.4" fill="#009af9" fill-rule="evenodd" fill-opacity="1" stroke="#000000" stroke-opacity="1" stroke-width="3.2"></circle>
<polyline clip-path="url(#clip702)" style="stroke:#e26f46; stroke-linecap:butt; stroke-linejoin:round; stroke-width:8; stroke-opacity:1; fill:none" points="
  247.59,1414.64 254.243,1413.51 260.896,1412.36 322.415,1400.47 383.935,1386.03 420.905,1375.91 457.876,1364.57 489.134,1353.93 520.392,1342.25 554.347,1328.27 
  588.302,1312.85 619.606,1297.24 650.909,1280.2 684.47,1260.25 718.031,1238.45 756.914,1210.74 795.798,1180.28 830.353,1150.8 864.908,1119.02 895.209,1089.25 
  925.511,1057.72 958.548,1021.41 991.585,983.198 1024.82,943.023 1058.05,901.358 1131.54,805.673 1201.46,713.872 1237.81,667.705 1274.16,623.773 1289.46,606.181 
  1304.76,589.227 1320.06,572.982 1335.36,557.518 1354.04,539.797 1372.72,523.467 1391.4,508.643 1410.08,495.433 1427.19,484.833 1444.3,475.739 1461.41,468.209 
  1478.52,462.292 1494.33,458.294 1510.13,455.73 1525.94,454.612 1541.74,454.947 1557.75,456.765 1573.76,460.061 1589.77,464.814 1605.77,470.997 1623.72,479.577 
  1641.66,489.843 1659.6,501.718 1677.54,515.116 1693.8,528.493 1710.06,542.964 1726.31,558.446 1742.57,574.851 1779.8,615.385 1817.03,659.06 1851.5,701.136 
  1885.97,743.537 1919.95,784.219 1953.93,821.929 1970.43,838.427 1986.93,853.236 2003.43,865.881 2019.92,875.776 2028.38,879.556 2036.83,882.317 2045.29,883.938 
  2053.75,884.284 2062.2,883.209 2070.66,880.554 2079.11,876.151 2087.57,869.817 2096.83,860.436 2106.1,848.252 2110.73,841.027 2115.36,833.003 2120,824.15 
  2124.63,814.436 2129.26,803.834 2133.89,792.316 2138.53,779.859 2143.16,766.443 2147.79,752.051 2152.42,736.673 2157.05,720.303 2161.69,702.943 2168.42,675.981 
  2175.14,647.012 2181.87,616.144 2188.6,583.534 2195.33,549.4 2202.06,514.019 2208.79,477.736 2215.52,440.962 2222.25,404.174 2228.98,367.909 2235.71,332.757 
  2242.44,299.35 2249.17,268.344 2255.89,240.397 2259.26,227.774 2262.62,216.156 2265.99,205.614 2269.35,196.221 2272.11,189.416 2274.87,183.46 2277.64,178.385 
  2280.4,174.217 2283.16,170.981 2285.92,168.697 2288.68,167.383 2291.44,167.052 
  "></polyline>
<path clip-path="url(#clip700)" d="
M1702.62 250.738 L2280.54 250.738 L2280.54 95.2176 L1702.62 95.2176  Z
  " fill="#ffffff" fill-rule="evenodd" fill-opacity="1"></path>
<polyline clip-path="url(#clip700)" style="stroke:#000000; stroke-linecap:butt; stroke-linejoin:round; stroke-width:4; stroke-opacity:1; fill:none" points="
  1702.62,250.738 2280.54,250.738 2280.54,95.2176 1702.62,95.2176 1702.62,250.738 
  "></polyline>
<circle clip-path="url(#clip700)" cx="1798.91" cy="147.058" r="23.04" fill="#009af9" fill-rule="evenodd" fill-opacity="1" stroke="#000000" stroke-opacity="1" stroke-width="5.12"></circle>
<path clip-path="url(#clip700)" d="M1909.04 166.745 Q1907.24 171.375 1905.52 172.787 Q1903.81 174.199 1900.94 174.199 L1897.54 174.199 L1897.54 170.634 L1900.04 170.634 Q1901.8 170.634 1902.77 169.8 Q1903.74 168.967 1904.92 165.865 L1905.68 163.921 L1895.2 138.412 L1899.71 138.412 L1907.81 158.689 L1915.92 138.412 L1920.43 138.412 L1909.04 166.745 Z" fill="#000000" fill-rule="evenodd" fill-opacity="1"></path><path clip-path="url(#clip700)" d="M1927.72 160.402 L1935.36 160.402 L1935.36 134.037 L1927.05 135.703 L1927.05 131.444 L1935.31 129.778 L1939.99 129.778 L1939.99 160.402 L1947.63 160.402 L1947.63 164.338 L1927.72 164.338 L1927.72 160.402 Z" fill="#000000" fill-rule="evenodd" fill-opacity="1"></path><polyline clip-path="url(#clip700)" style="stroke:#e26f46; stroke-linecap:butt; stroke-linejoin:round; stroke-width:4; stroke-opacity:1; fill:none" points="
  1726.69,198.898 1871.13,198.898 
  "></polyline>
<path clip-path="url(#clip700)" d="M1923.07 184.28 L1923.07 189.21 Q1920.71 187.011 1918.02 185.923 Q1915.36 184.835 1912.35 184.835 Q1906.43 184.835 1903.28 188.469 Q1900.13 192.08 1900.13 198.932 Q1900.13 205.761 1903.28 209.395 Q1906.43 213.006 1912.35 213.006 Q1915.36 213.006 1918.02 211.918 Q1920.71 210.83 1923.07 208.631 L1923.07 213.516 Q1920.62 215.182 1917.86 216.016 Q1915.13 216.849 1912.07 216.849 Q1904.23 216.849 1899.71 212.057 Q1895.2 207.242 1895.2 198.932 Q1895.2 190.599 1899.71 185.807 Q1904.23 180.993 1912.07 180.993 Q1915.18 180.993 1917.91 181.826 Q1920.66 182.636 1923.07 184.28 Z" fill="#000000" fill-rule="evenodd" fill-opacity="1"></path><path clip-path="url(#clip700)" d="M1929.67 205.946 L1929.67 190.252 L1933.93 190.252 L1933.93 205.784 Q1933.93 209.465 1935.36 211.316 Q1936.8 213.145 1939.67 213.145 Q1943.11 213.145 1945.11 210.946 Q1947.12 208.747 1947.12 204.951 L1947.12 190.252 L1951.38 190.252 L1951.38 216.178 L1947.12 216.178 L1947.12 212.196 Q1945.57 214.557 1943.51 215.715 Q1941.47 216.849 1938.76 216.849 Q1934.3 216.849 1931.98 214.071 Q1929.67 211.293 1929.67 205.946 M1940.38 189.627 L1940.38 189.627 Z" fill="#000000" fill-rule="evenodd" fill-opacity="1"></path><path clip-path="url(#clip700)" d="M1976.68 191.016 L1976.68 195.043 Q1974.87 194.117 1972.93 193.655 Q1970.99 193.192 1968.9 193.192 Q1965.73 193.192 1964.13 194.164 Q1962.56 195.136 1962.56 197.08 Q1962.56 198.562 1963.69 199.418 Q1964.83 200.252 1968.25 201.016 L1969.71 201.34 Q1974.25 202.312 1976.15 204.094 Q1978.07 205.854 1978.07 209.025 Q1978.07 212.636 1975.2 214.742 Q1972.35 216.849 1967.35 216.849 Q1965.27 216.849 1963 216.432 Q1960.75 216.039 1958.25 215.228 L1958.25 210.83 Q1960.61 212.057 1962.91 212.682 Q1965.2 213.284 1967.44 213.284 Q1970.45 213.284 1972.07 212.266 Q1973.69 211.224 1973.69 209.349 Q1973.69 207.613 1972.51 206.687 Q1971.36 205.761 1967.4 204.904 L1965.92 204.557 Q1961.96 203.724 1960.2 202.011 Q1958.44 200.275 1958.44 197.266 Q1958.44 193.608 1961.03 191.618 Q1963.62 189.627 1968.39 189.627 Q1970.75 189.627 1972.84 189.974 Q1974.92 190.321 1976.68 191.016 Z" fill="#000000" fill-rule="evenodd" fill-opacity="1"></path><path clip-path="url(#clip700)" d="M1989.06 182.891 L1989.06 190.252 L1997.84 190.252 L1997.84 193.562 L1989.06 193.562 L1989.06 207.636 Q1989.06 210.807 1989.92 211.71 Q1990.8 212.613 1993.46 212.613 L1997.84 212.613 L1997.84 216.178 L1993.46 216.178 Q1988.53 216.178 1986.66 214.349 Q1984.78 212.497 1984.78 207.636 L1984.78 193.562 L1981.66 193.562 L1981.66 190.252 L1984.78 190.252 L1984.78 182.891 L1989.06 182.891 Z" fill="#000000" fill-rule="evenodd" fill-opacity="1"></path><path clip-path="url(#clip700)" d="M2013.48 193.238 Q2010.06 193.238 2008.07 195.923 Q2006.08 198.585 2006.08 203.238 Q2006.08 207.891 2008.05 210.576 Q2010.04 213.238 2013.48 213.238 Q2016.89 213.238 2018.88 210.553 Q2020.87 207.867 2020.87 203.238 Q2020.87 198.631 2018.88 195.946 Q2016.89 193.238 2013.48 193.238 M2013.48 189.627 Q2019.04 189.627 2022.21 193.238 Q2025.38 196.849 2025.38 203.238 Q2025.38 209.604 2022.21 213.238 Q2019.04 216.849 2013.48 216.849 Q2007.91 216.849 2004.73 213.238 Q2001.59 209.604 2001.59 203.238 Q2001.59 196.849 2004.73 193.238 Q2007.91 189.627 2013.48 189.627 Z" fill="#000000" fill-rule="evenodd" fill-opacity="1"></path><path clip-path="url(#clip700)" d="M2052.63 195.229 Q2054.23 192.358 2056.45 190.993 Q2058.67 189.627 2061.68 189.627 Q2065.73 189.627 2067.93 192.474 Q2070.13 195.298 2070.13 200.529 L2070.13 216.178 L2065.85 216.178 L2065.85 200.668 Q2065.85 196.942 2064.53 195.136 Q2063.21 193.33 2060.5 193.33 Q2057.19 193.33 2055.27 195.53 Q2053.35 197.729 2053.35 201.525 L2053.35 216.178 L2049.06 216.178 L2049.06 200.668 Q2049.06 196.918 2047.74 195.136 Q2046.42 193.33 2043.67 193.33 Q2040.41 193.33 2038.48 195.553 Q2036.56 197.752 2036.56 201.525 L2036.56 216.178 L2032.28 216.178 L2032.28 190.252 L2036.56 190.252 L2036.56 194.28 Q2038.02 191.895 2040.06 190.761 Q2042.1 189.627 2044.9 189.627 Q2047.72 189.627 2049.69 191.062 Q2051.68 192.497 2052.63 195.229 Z" fill="#000000" fill-rule="evenodd" fill-opacity="1"></path><path clip-path="url(#clip700)" d="M2113.88 195.229 Q2115.48 192.358 2117.7 190.993 Q2119.92 189.627 2122.93 189.627 Q2126.98 189.627 2129.18 192.474 Q2131.38 195.298 2131.38 200.529 L2131.38 216.178 L2127.1 216.178 L2127.1 200.668 Q2127.1 196.942 2125.78 195.136 Q2124.46 193.33 2121.75 193.33 Q2118.44 193.33 2116.52 195.53 Q2114.6 197.729 2114.6 201.525 L2114.6 216.178 L2110.31 216.178 L2110.31 200.668 Q2110.31 196.918 2108.99 195.136 Q2107.67 193.33 2104.92 193.33 Q2101.66 193.33 2099.73 195.553 Q2097.81 197.752 2097.81 201.525 L2097.81 216.178 L2093.53 216.178 L2093.53 190.252 L2097.81 190.252 L2097.81 194.28 Q2099.27 191.895 2101.31 190.761 Q2103.35 189.627 2106.15 189.627 Q2108.97 189.627 2110.94 191.062 Q2112.93 192.497 2113.88 195.229 Z" fill="#000000" fill-rule="evenodd" fill-opacity="1"></path><path clip-path="url(#clip700)" d="M2149.92 193.238 Q2146.49 193.238 2144.5 195.923 Q2142.51 198.585 2142.51 203.238 Q2142.51 207.891 2144.48 210.576 Q2146.47 213.238 2149.92 213.238 Q2153.32 213.238 2155.31 210.553 Q2157.3 207.867 2157.3 203.238 Q2157.3 198.631 2155.31 195.946 Q2153.32 193.238 2149.92 193.238 M2149.92 189.627 Q2155.47 189.627 2158.65 193.238 Q2161.82 196.849 2161.82 203.238 Q2161.82 209.604 2158.65 213.238 Q2155.47 216.849 2149.92 216.849 Q2144.34 216.849 2141.17 213.238 Q2138.02 209.604 2138.02 203.238 Q2138.02 196.849 2141.17 193.238 Q2144.34 189.627 2149.92 189.627 Z" fill="#000000" fill-rule="evenodd" fill-opacity="1"></path><path clip-path="url(#clip700)" d="M2185.94 194.187 L2185.94 180.159 L2190.2 180.159 L2190.2 216.178 L2185.94 216.178 L2185.94 212.289 Q2184.6 214.603 2182.53 215.738 Q2180.5 216.849 2177.63 216.849 Q2172.93 216.849 2169.97 213.099 Q2167.03 209.349 2167.03 203.238 Q2167.03 197.127 2169.97 193.377 Q2172.93 189.627 2177.63 189.627 Q2180.5 189.627 2182.53 190.761 Q2184.6 191.872 2185.94 194.187 M2171.42 203.238 Q2171.42 207.937 2173.35 210.622 Q2175.29 213.284 2178.67 213.284 Q2182.05 213.284 2183.99 210.622 Q2185.94 207.937 2185.94 203.238 Q2185.94 198.539 2183.99 195.877 Q2182.05 193.192 2178.67 193.192 Q2175.29 193.192 2173.35 195.877 Q2171.42 198.539 2171.42 203.238 Z" fill="#000000" fill-rule="evenodd" fill-opacity="1"></path><path clip-path="url(#clip700)" d="M2221.15 202.15 L2221.15 204.233 L2201.56 204.233 Q2201.84 208.631 2204.2 210.946 Q2206.59 213.238 2210.82 213.238 Q2213.28 213.238 2215.57 212.636 Q2217.88 212.034 2220.15 210.83 L2220.15 214.858 Q2217.86 215.83 2215.45 216.34 Q2213.04 216.849 2210.57 216.849 Q2204.36 216.849 2200.73 213.238 Q2197.12 209.627 2197.12 203.469 Q2197.12 197.104 2200.54 193.377 Q2203.99 189.627 2209.83 189.627 Q2215.06 189.627 2218.09 193.006 Q2221.15 196.363 2221.15 202.15 M2216.89 200.9 Q2216.84 197.405 2214.92 195.321 Q2213.02 193.238 2209.87 193.238 Q2206.31 193.238 2204.16 195.252 Q2202.03 197.266 2201.7 200.923 L2216.89 200.9 Z" fill="#000000" fill-rule="evenodd" fill-opacity="1"></path><path clip-path="url(#clip700)" d="M2228.14 180.159 L2232.4 180.159 L2232.4 216.178 L2228.14 216.178 L2228.14 180.159 Z" fill="#000000" fill-rule="evenodd" fill-opacity="1"></path></svg>