<svg xmlns="http://www.w3.org/2000/svg" xmlns:xlink="http://www.w3.org/1999/xlink" width="1200" height="1200" viewBox="0 0 4800 4800">
<defs>
  <clipPath id="clip120">
    <rect x="0" y="0" width="4800" height="4800"></rect>
  </clipPath>
</defs>
<path clip-path="url(#clip120)" d="
M0 4800 L4800 4800 L4800 0 L0 0  Z
  " fill="#ffffff" fill-rule="evenodd" fill-opacity="1"></path>
<defs>
  <clipPath id="clip121">
    <rect x="960" y="480" width="3361" height="3361"></rect>
  </clipPath>
</defs>
<path clip-path="url(#clip120)" d="
M315.32 4637.17 L4752.76 4637.17 L4752.76 47.2441 L315.32 47.2441  Z
  " fill="#ffffff" fill-rule="evenodd" fill-opacity="1"></path>
<defs>
  <clipPath id="clip122">
    <rect x="315" y="47" width="4438" height="4591"></rect>
  </clipPath>
</defs>
<polyline clip-path="url(#clip122)" style="stroke:#000000; stroke-linecap:butt; stroke-linejoin:round; stroke-width:2; stroke-opacity:0.1; fill:none" points="
  399.045,4637.17 399.045,47.2441 
  "></polyline>
<polyline clip-path="url(#clip122)" style="stroke:#000000; stroke-linecap:butt; stroke-linejoin:round; stroke-width:2; stroke-opacity:0.1; fill:none" points="
  1445.61,4637.17 1445.61,47.2441 
  "></polyline>
<polyline clip-path="url(#clip122)" style="stroke:#000000; stroke-linecap:butt; stroke-linejoin:round; stroke-width:2; stroke-opacity:0.1; fill:none" points="
  2492.18,4637.17 2492.18,47.2441 
  "></polyline>
<polyline clip-path="url(#clip122)" style="stroke:#000000; stroke-linecap:butt; stroke-linejoin:round; stroke-width:2; stroke-opacity:0.1; fill:none" points="
  3538.74,4637.17 3538.74,47.2441 
  "></polyline>
<polyline clip-path="url(#clip122)" style="stroke:#000000; stroke-linecap:butt; stroke-linejoin:round; stroke-width:2; stroke-opacity:0.1; fill:none" points="
  4585.31,4637.17 4585.31,47.2441 
  "></polyline>
<polyline clip-path="url(#clip120)" style="stroke:#000000; stroke-linecap:butt; stroke-linejoin:round; stroke-width:4; stroke-opacity:1; fill:none" points="
  315.32,4637.17 4752.76,4637.17 
  "></polyline>
<polyline clip-path="url(#clip120)" style="stroke:#000000; stroke-linecap:butt; stroke-linejoin:round; stroke-width:4; stroke-opacity:1; fill:none" points="
  399.045,4637.17 399.045,4618.27 
  "></polyline>
<polyline clip-path="url(#clip120)" style="stroke:#000000; stroke-linecap:butt; stroke-linejoin:round; stroke-width:4; stroke-opacity:1; fill:none" points="
  1445.61,4637.17 1445.61,4618.27 
  "></polyline>
<polyline clip-path="url(#clip120)" style="stroke:#000000; stroke-linecap:butt; stroke-linejoin:round; stroke-width:4; stroke-opacity:1; fill:none" points="
  2492.18,4637.17 2492.18,4618.27 
  "></polyline>
<polyline clip-path="url(#clip120)" style="stroke:#000000; stroke-linecap:butt; stroke-linejoin:round; stroke-width:4; stroke-opacity:1; fill:none" points="
  3538.74,4637.17 3538.74,4618.27 
  "></polyline>
<polyline clip-path="url(#clip120)" style="stroke:#000000; stroke-linecap:butt; stroke-linejoin:round; stroke-width:4; stroke-opacity:1; fill:none" points="
  4585.31,4637.17 4585.31,4618.27 
  "></polyline>
<path clip-path="url(#clip120)" d="M399.045 4687.29 Q395.434 4687.29 393.605 4690.85 Q391.8 4694.39 391.8 4701.52 Q391.8 4708.63 393.605 4712.19 Q395.434 4715.74 399.045 4715.74 Q402.679 4715.74 404.485 4712.19 Q406.313 4708.63 406.313 4701.52 Q406.313 4694.39 404.485 4690.85 Q402.679 4687.29 399.045 4687.29 M399.045 4683.58 Q404.855 4683.58 407.911 4688.19 Q410.989 4692.77 410.989 4701.52 Q410.989 4710.25 407.911 4714.86 Q404.855 4719.44 399.045 4719.44 Q393.235 4719.44 390.156 4714.86 Q387.101 4710.25 387.101 4701.52 Q387.101 4692.77 390.156 4688.19 Q393.235 4683.58 399.045 4683.58 Z" fill="#000000" fill-rule="evenodd" fill-opacity="1"></path><path clip-path="url(#clip120)" d="M1424.88 4714.83 L1441.2 4714.83 L1441.2 4718.77 L1419.26 4718.77 L1419.26 4714.83 Q1421.92 4712.08 1426.5 4707.45 Q1431.11 4702.8 1432.29 4701.45 Q1434.53 4698.93 1435.41 4697.19 Q1436.32 4695.43 1436.32 4693.74 Q1436.32 4690.99 1434.37 4689.25 Q1432.45 4687.52 1429.35 4687.52 Q1427.15 4687.52 1424.7 4688.28 Q1422.27 4689.05 1419.49 4690.6 L1419.49 4685.87 Q1422.31 4684.74 1424.77 4684.16 Q1427.22 4683.58 1429.26 4683.58 Q1434.63 4683.58 1437.82 4686.27 Q1441.02 4688.95 1441.02 4693.44 Q1441.02 4695.57 1440.21 4697.49 Q1439.42 4699.39 1437.31 4701.99 Q1436.73 4702.66 1433.63 4705.87 Q1430.53 4709.07 1424.88 4714.83 Z" fill="#000000" fill-rule="evenodd" fill-opacity="1"></path><path clip-path="url(#clip120)" d="M1451.06 4684.21 L1469.42 4684.21 L1469.42 4688.14 L1455.34 4688.14 L1455.34 4696.62 Q1456.36 4696.27 1457.38 4696.11 Q1458.4 4695.92 1459.42 4695.92 Q1465.2 4695.92 1468.58 4699.09 Q1471.96 4702.26 1471.96 4707.68 Q1471.96 4713.26 1468.49 4716.36 Q1465.02 4719.44 1458.7 4719.44 Q1456.52 4719.44 1454.26 4719.07 Q1452.01 4718.7 1449.6 4717.96 L1449.6 4713.26 Q1451.69 4714.39 1453.91 4714.95 Q1456.13 4715.5 1458.61 4715.5 Q1462.61 4715.5 1464.95 4713.4 Q1467.29 4711.29 1467.29 4707.68 Q1467.29 4704.07 1464.95 4701.96 Q1462.61 4699.86 1458.61 4699.86 Q1456.73 4699.86 1454.86 4700.27 Q1453.01 4700.69 1451.06 4701.57 L1451.06 4684.21 Z" fill="#000000" fill-rule="evenodd" fill-opacity="1"></path><path clip-path="url(#clip120)" d="M2466.87 4684.21 L2485.23 4684.21 L2485.23 4688.14 L2471.16 4688.14 L2471.16 4696.62 Q2472.18 4696.27 2473.19 4696.11 Q2474.21 4695.92 2475.23 4695.92 Q2481.02 4695.92 2484.4 4699.09 Q2487.78 4702.26 2487.78 4707.68 Q2487.78 4713.26 2484.3 4716.36 Q2480.83 4719.44 2474.51 4719.44 Q2472.34 4719.44 2470.07 4719.07 Q2467.82 4718.7 2465.42 4717.96 L2465.42 4713.26 Q2467.5 4714.39 2469.72 4714.95 Q2471.94 4715.5 2474.42 4715.5 Q2478.43 4715.5 2480.76 4713.4 Q2483.1 4711.29 2483.1 4707.68 Q2483.1 4704.07 2480.76 4701.96 Q2478.43 4699.86 2474.42 4699.86 Q2472.55 4699.86 2470.67 4700.27 Q2468.82 4700.69 2466.87 4701.57 L2466.87 4684.21 Z" fill="#000000" fill-rule="evenodd" fill-opacity="1"></path><path clip-path="url(#clip120)" d="M2506.99 4687.29 Q2503.38 4687.29 2501.55 4690.85 Q2499.74 4694.39 2499.74 4701.52 Q2499.74 4708.63 2501.55 4712.19 Q2503.38 4715.74 2506.99 4715.74 Q2510.62 4715.74 2512.43 4712.19 Q2514.26 4708.63 2514.26 4701.52 Q2514.26 4694.39 2512.43 4690.85 Q2510.62 4687.29 2506.99 4687.29 M2506.99 4683.58 Q2512.8 4683.58 2515.86 4688.19 Q2518.93 4692.77 2518.93 4701.52 Q2518.93 4710.25 2515.86 4714.86 Q2512.8 4719.44 2506.99 4719.44 Q2501.18 4719.44 2498.1 4714.86 Q2495.05 4710.25 2495.05 4701.52 Q2495.05 4692.77 2498.1 4688.19 Q2501.18 4683.58 2506.99 4683.58 Z" fill="#000000" fill-rule="evenodd" fill-opacity="1"></path><path clip-path="url(#clip120)" d="M3512.59 4684.21 L3534.82 4684.21 L3534.82 4686.2 L3522.27 4718.77 L3517.39 4718.77 L3529.19 4688.14 L3512.59 4688.14 L3512.59 4684.21 Z" fill="#000000" fill-rule="evenodd" fill-opacity="1"></path><path clip-path="url(#clip120)" d="M3543.98 4684.21 L3562.34 4684.21 L3562.34 4688.14 L3548.27 4688.14 L3548.27 4696.62 Q3549.28 4696.27 3550.3 4696.11 Q3551.32 4695.92 3552.34 4695.92 Q3558.13 4695.92 3561.51 4699.09 Q3564.89 4702.26 3564.89 4707.68 Q3564.89 4713.26 3561.41 4716.36 Q3557.94 4719.44 3551.62 4719.44 Q3549.45 4719.44 3547.18 4719.07 Q3544.93 4718.7 3542.53 4717.96 L3542.53 4713.26 Q3544.61 4714.39 3546.83 4714.95 Q3549.05 4715.5 3551.53 4715.5 Q3555.53 4715.5 3557.87 4713.4 Q3560.21 4711.29 3560.21 4707.68 Q3560.21 4704.07 3557.87 4701.96 Q3555.53 4699.86 3551.53 4699.86 Q3549.65 4699.86 3547.78 4700.27 Q3545.93 4700.69 3543.98 4701.57 L3543.98 4684.21 Z" fill="#000000" fill-rule="evenodd" fill-opacity="1"></path><path clip-path="url(#clip120)" d="M4544.91 4714.83 L4552.55 4714.83 L4552.55 4688.47 L4544.24 4690.13 L4544.24 4685.87 L4552.5 4684.21 L4557.18 4684.21 L4557.18 4714.83 L4564.82 4714.83 L4564.82 4718.77 L4544.91 4718.77 L4544.91 4714.83 Z" fill="#000000" fill-rule="evenodd" fill-opacity="1"></path><path clip-path="url(#clip120)" d="M4584.26 4687.29 Q4580.65 4687.29 4578.82 4690.85 Q4577.02 4694.39 4577.02 4701.52 Q4577.02 4708.63 4578.82 4712.19 Q4580.65 4715.74 4584.26 4715.74 Q4587.9 4715.74 4589.7 4712.19 Q4591.53 4708.63 4591.53 4701.52 Q4591.53 4694.39 4589.7 4690.85 Q4587.9 4687.29 4584.26 4687.29 M4584.26 4683.58 Q4590.07 4683.58 4593.13 4688.19 Q4596.21 4692.77 4596.21 4701.52 Q4596.21 4710.25 4593.13 4714.86 Q4590.07 4719.44 4584.26 4719.44 Q4578.45 4719.44 4575.37 4714.86 Q4572.32 4710.25 4572.32 4701.52 Q4572.32 4692.77 4575.37 4688.19 Q4578.45 4683.58 4584.26 4683.58 Z" fill="#000000" fill-rule="evenodd" fill-opacity="1"></path><path clip-path="url(#clip120)" d="M4614.43 4687.29 Q4610.81 4687.29 4608.99 4690.85 Q4607.18 4694.39 4607.18 4701.52 Q4607.18 4708.63 4608.99 4712.19 Q4610.81 4715.74 4614.43 4715.74 Q4618.06 4715.74 4619.87 4712.19 Q4621.69 4708.63 4621.69 4701.52 Q4621.69 4694.39 4619.87 4690.85 Q4618.06 4687.29 4614.43 4687.29 M4614.43 4683.58 Q4620.24 4683.58 4623.29 4688.19 Q4626.37 4692.77 4626.37 4701.52 Q4626.37 4710.25 4623.29 4714.86 Q4620.24 4719.44 4614.43 4719.44 Q4608.62 4719.44 4605.54 4714.86 Q4602.48 4710.25 4602.48 4701.52 Q4602.48 4692.77 4605.54 4688.19 Q4608.62 4683.58 4614.43 4683.58 Z" fill="#000000" fill-rule="evenodd" fill-opacity="1"></path><polyline clip-path="url(#clip122)" style="stroke:#000000; stroke-linecap:butt; stroke-linejoin:round; stroke-width:2; stroke-opacity:0.1; fill:none" points="
  315.32,4269.98 4752.76,4269.98 
  "></polyline>
<polyline clip-path="url(#clip122)" style="stroke:#000000; stroke-linecap:butt; stroke-linejoin:round; stroke-width:2; stroke-opacity:0.1; fill:none" points="
  315.32,3061.94 4752.76,3061.94 
  "></polyline>
<polyline clip-path="url(#clip122)" style="stroke:#000000; stroke-linecap:butt; stroke-linejoin:round; stroke-width:2; stroke-opacity:0.1; fill:none" points="
  315.32,1853.9 4752.76,1853.9 
  "></polyline>
<polyline clip-path="url(#clip122)" style="stroke:#000000; stroke-linecap:butt; stroke-linejoin:round; stroke-width:2; stroke-opacity:0.1; fill:none" points="
  315.32,645.851 4752.76,645.851 
  "></polyline>
<polyline clip-path="url(#clip120)" style="stroke:#000000; stroke-linecap:butt; stroke-linejoin:round; stroke-width:4; stroke-opacity:1; fill:none" points="
  315.32,4637.17 315.32,47.2441 
  "></polyline>
<polyline clip-path="url(#clip120)" style="stroke:#000000; stroke-linecap:butt; stroke-linejoin:round; stroke-width:4; stroke-opacity:1; fill:none" points="
  315.32,4269.98 334.217,4269.98 
  "></polyline>
<polyline clip-path="url(#clip120)" style="stroke:#000000; stroke-linecap:butt; stroke-linejoin:round; stroke-width:4; stroke-opacity:1; fill:none" points="
  315.32,3061.94 334.217,3061.94 
  "></polyline>
<polyline clip-path="url(#clip120)" style="stroke:#000000; stroke-linecap:butt; stroke-linejoin:round; stroke-width:4; stroke-opacity:1; fill:none" points="
  315.32,1853.9 334.217,1853.9 
  "></polyline>
<polyline clip-path="url(#clip120)" style="stroke:#000000; stroke-linecap:butt; stroke-linejoin:round; stroke-width:4; stroke-opacity:1; fill:none" points="
  315.32,645.851 334.217,645.851 
  "></polyline>
<path clip-path="url(#clip120)" d="M40.4505 4252.7 L58.8068 4252.7 L58.8068 4256.64 L44.7328 4256.64 L44.7328 4265.11 Q45.7513 4264.76 46.7699 4264.6 Q47.7884 4264.42 48.8069 4264.42 Q54.5939 4264.42 57.9735 4267.59 Q61.3531 4270.76 61.3531 4276.18 Q61.3531 4281.75 57.8809 4284.86 Q54.4087 4287.94 48.0893 4287.94 Q45.9134 4287.94 43.6449 4287.56 Q41.3995 4287.19 38.9921 4286.45 L38.9921 4281.75 Q41.0754 4282.89 43.2977 4283.44 Q45.5199 4284 47.9967 4284 Q52.0013 4284 54.3393 4281.89 Q56.6772 4279.79 56.6772 4276.18 Q56.6772 4272.56 54.3393 4270.46 Q52.0013 4268.35 47.9967 4268.35 Q46.1217 4268.35 44.2467 4268.77 Q42.3949 4269.19 40.4505 4270.06 L40.4505 4252.7 Z" fill="#000000" fill-rule="evenodd" fill-opacity="1"></path><path clip-path="url(#clip120)" d="M80.566 4255.78 Q76.9549 4255.78 75.1262 4259.35 Q73.3206 4262.89 73.3206 4270.02 Q73.3206 4277.12 75.1262 4280.69 Q76.9549 4284.23 80.566 4284.23 Q84.2002 4284.23 86.0058 4280.69 Q87.8345 4277.12 87.8345 4270.02 Q87.8345 4262.89 86.0058 4259.35 Q84.2002 4255.78 80.566 4255.78 M80.566 4252.08 Q86.3761 4252.08 89.4317 4256.69 Q92.5104 4261.27 92.5104 4270.02 Q92.5104 4278.75 89.4317 4283.35 Q86.3761 4287.94 80.566 4287.94 Q74.7558 4287.94 71.6771 4283.35 Q68.6216 4278.75 68.6216 4270.02 Q68.6216 4261.27 71.6771 4256.69 Q74.7558 4252.08 80.566 4252.08 Z" fill="#000000" fill-rule="evenodd" fill-opacity="1"></path><path clip-path="url(#clip120)" d="M114.894 4268.63 Q118.251 4269.35 120.126 4271.62 Q122.024 4273.88 122.024 4277.22 Q122.024 4282.33 118.506 4285.13 Q114.987 4287.94 108.506 4287.94 Q106.33 4287.94 104.015 4287.5 Q101.723 4287.08 99.2696 4286.22 L99.2696 4281.71 Q101.214 4282.84 103.529 4283.42 Q105.844 4284 108.367 4284 Q112.765 4284 115.057 4282.26 Q117.371 4280.53 117.371 4277.22 Q117.371 4274.16 115.219 4272.45 Q113.089 4270.71 109.27 4270.71 L105.242 4270.71 L105.242 4266.87 L109.455 4266.87 Q112.904 4266.87 114.732 4265.5 Q116.561 4264.12 116.561 4261.52 Q116.561 4258.86 114.663 4257.45 Q112.788 4256.01 109.27 4256.01 Q107.348 4256.01 105.149 4256.43 Q102.95 4256.85 100.311 4257.73 L100.311 4253.56 Q102.973 4252.82 105.288 4252.45 Q107.626 4252.08 109.686 4252.08 Q115.01 4252.08 118.112 4254.51 Q121.214 4256.92 121.214 4261.04 Q121.214 4263.91 119.57 4265.9 Q117.927 4267.87 114.894 4268.63 Z" fill="#000000" fill-rule="evenodd" fill-opacity="1"></path><path clip-path="url(#clip120)" d="M134.918 4283.33 L151.237 4283.33 L151.237 4287.26 L129.293 4287.26 L129.293 4283.33 Q131.955 4280.57 136.538 4275.94 Q141.144 4271.29 142.325 4269.95 Q144.57 4267.43 145.45 4265.69 Q146.353 4263.93 146.353 4262.24 Q146.353 4259.49 144.408 4257.75 Q142.487 4256.01 139.385 4256.01 Q137.186 4256.01 134.732 4256.78 Q132.302 4257.54 129.524 4259.09 L129.524 4254.37 Q132.348 4253.24 134.802 4252.66 Q137.255 4252.08 139.293 4252.08 Q144.663 4252.08 147.857 4254.76 Q151.052 4257.45 151.052 4261.94 Q151.052 4264.07 150.242 4265.99 Q149.454 4267.89 147.348 4270.48 Q146.769 4271.15 143.667 4274.37 Q140.566 4277.56 134.918 4283.33 Z" fill="#000000" fill-rule="evenodd" fill-opacity="1"></path><path clip-path="url(#clip120)" d="M171.052 4255.78 Q167.441 4255.78 165.612 4259.35 Q163.806 4262.89 163.806 4270.02 Q163.806 4277.12 165.612 4280.69 Q167.441 4284.23 171.052 4284.23 Q174.686 4284.23 176.491 4280.69 Q178.32 4277.12 178.32 4270.02 Q178.32 4262.89 176.491 4259.35 Q174.686 4255.78 171.052 4255.78 M171.052 4252.08 Q176.862 4252.08 179.917 4256.69 Q182.996 4261.27 182.996 4270.02 Q182.996 4278.75 179.917 4283.35 Q176.862 4287.94 171.052 4287.94 Q165.241 4287.94 162.163 4283.35 Q159.107 4278.75 159.107 4270.02 Q159.107 4261.27 162.163 4256.69 Q165.241 4252.08 171.052 4252.08 Z" fill="#000000" fill-rule="evenodd" fill-opacity="1"></path><path clip-path="url(#clip120)" d="M201.213 4255.78 Q197.602 4255.78 195.774 4259.35 Q193.968 4262.89 193.968 4270.02 Q193.968 4277.12 195.774 4280.69 Q197.602 4284.23 201.213 4284.23 Q204.848 4284.23 206.653 4280.69 Q208.482 4277.12 208.482 4270.02 Q208.482 4262.89 206.653 4259.35 Q204.848 4255.78 201.213 4255.78 M201.213 4252.08 Q207.024 4252.08 210.079 4256.69 Q213.158 4261.27 213.158 4270.02 Q213.158 4278.75 210.079 4283.35 Q207.024 4287.94 201.213 4287.94 Q195.403 4287.94 192.325 4283.35 Q189.269 4278.75 189.269 4270.02 Q189.269 4261.27 192.325 4256.69 Q195.403 4252.08 201.213 4252.08 Z" fill="#000000" fill-rule="evenodd" fill-opacity="1"></path><path clip-path="url(#clip120)" d="M231.375 4255.78 Q227.764 4255.78 225.936 4259.35 Q224.13 4262.89 224.13 4270.02 Q224.13 4277.12 225.936 4280.69 Q227.764 4284.23 231.375 4284.23 Q235.01 4284.23 236.815 4280.69 Q238.644 4277.12 238.644 4270.02 Q238.644 4262.89 236.815 4259.35 Q235.01 4255.78 231.375 4255.78 M231.375 4252.08 Q237.186 4252.08 240.241 4256.69 Q243.32 4261.27 243.32 4270.02 Q243.32 4278.75 240.241 4283.35 Q237.186 4287.94 231.375 4287.94 Q225.565 4287.94 222.487 4283.35 Q219.431 4278.75 219.431 4270.02 Q219.431 4261.27 222.487 4256.69 Q225.565 4252.08 231.375 4252.08 Z" fill="#000000" fill-rule="evenodd" fill-opacity="1"></path><path clip-path="url(#clip120)" d="M40.4505 3044.66 L58.8068 3044.66 L58.8068 3048.59 L44.7328 3048.59 L44.7328 3057.07 Q45.7513 3056.72 46.7699 3056.56 Q47.7884 3056.37 48.8069 3056.37 Q54.5939 3056.37 57.9735 3059.54 Q61.3531 3062.72 61.3531 3068.13 Q61.3531 3073.71 57.8809 3076.81 Q54.4087 3079.89 48.0893 3079.89 Q45.9134 3079.89 43.6449 3079.52 Q41.3995 3079.15 38.9921 3078.41 L38.9921 3073.71 Q41.0754 3074.84 43.2977 3075.4 Q45.5199 3075.96 47.9967 3075.96 Q52.0013 3075.96 54.3393 3073.85 Q56.6772 3071.74 56.6772 3068.13 Q56.6772 3064.52 54.3393 3062.41 Q52.0013 3060.31 47.9967 3060.31 Q46.1217 3060.31 44.2467 3060.72 Q42.3949 3061.14 40.4505 3062.02 L40.4505 3044.66 Z" fill="#000000" fill-rule="evenodd" fill-opacity="1"></path><path clip-path="url(#clip120)" d="M80.566 3047.74 Q76.9549 3047.74 75.1262 3051.3 Q73.3206 3054.84 73.3206 3061.97 Q73.3206 3069.08 75.1262 3072.65 Q76.9549 3076.19 80.566 3076.19 Q84.2002 3076.19 86.0058 3072.65 Q87.8345 3069.08 87.8345 3061.97 Q87.8345 3054.84 86.0058 3051.3 Q84.2002 3047.74 80.566 3047.74 M80.566 3044.03 Q86.3761 3044.03 89.4317 3048.64 Q92.5104 3053.22 92.5104 3061.97 Q92.5104 3070.7 89.4317 3075.31 Q86.3761 3079.89 80.566 3079.89 Q74.7558 3079.89 71.6771 3075.31 Q68.6216 3070.7 68.6216 3061.97 Q68.6216 3053.22 71.6771 3048.64 Q74.7558 3044.03 80.566 3044.03 Z" fill="#000000" fill-rule="evenodd" fill-opacity="1"></path><path clip-path="url(#clip120)" d="M114.894 3060.59 Q118.251 3061.3 120.126 3063.57 Q122.024 3065.84 122.024 3069.17 Q122.024 3074.29 118.506 3077.09 Q114.987 3079.89 108.506 3079.89 Q106.33 3079.89 104.015 3079.45 Q101.723 3079.03 99.2696 3078.18 L99.2696 3073.66 Q101.214 3074.8 103.529 3075.38 Q105.844 3075.96 108.367 3075.96 Q112.765 3075.96 115.057 3074.22 Q117.371 3072.48 117.371 3069.17 Q117.371 3066.12 115.219 3064.4 Q113.089 3062.67 109.27 3062.67 L105.242 3062.67 L105.242 3058.83 L109.455 3058.83 Q112.904 3058.83 114.732 3057.46 Q116.561 3056.07 116.561 3053.48 Q116.561 3050.82 114.663 3049.4 Q112.788 3047.97 109.27 3047.97 Q107.348 3047.97 105.149 3048.39 Q102.95 3048.8 100.311 3049.68 L100.311 3045.52 Q102.973 3044.78 105.288 3044.4 Q107.626 3044.03 109.686 3044.03 Q115.01 3044.03 118.112 3046.47 Q121.214 3048.87 121.214 3052.99 Q121.214 3055.86 119.57 3057.85 Q117.927 3059.82 114.894 3060.59 Z" fill="#000000" fill-rule="evenodd" fill-opacity="1"></path><path clip-path="url(#clip120)" d="M134.918 3075.28 L151.237 3075.28 L151.237 3079.22 L129.293 3079.22 L129.293 3075.28 Q131.955 3072.53 136.538 3067.9 Q141.144 3063.25 142.325 3061.9 Q144.57 3059.38 145.45 3057.65 Q146.353 3055.89 146.353 3054.2 Q146.353 3051.44 144.408 3049.71 Q142.487 3047.97 139.385 3047.97 Q137.186 3047.97 134.732 3048.73 Q132.302 3049.5 129.524 3051.05 L129.524 3046.33 Q132.348 3045.19 134.802 3044.61 Q137.255 3044.03 139.293 3044.03 Q144.663 3044.03 147.857 3046.72 Q151.052 3049.4 151.052 3053.9 Q151.052 3056.03 150.242 3057.95 Q149.454 3059.84 147.348 3062.44 Q146.769 3063.11 143.667 3066.33 Q140.566 3069.52 134.918 3075.28 Z" fill="#000000" fill-rule="evenodd" fill-opacity="1"></path><path clip-path="url(#clip120)" d="M161.862 3075.28 L169.501 3075.28 L169.501 3048.92 L161.191 3050.59 L161.191 3046.33 L169.454 3044.66 L174.13 3044.66 L174.13 3075.28 L181.769 3075.28 L181.769 3079.22 L161.862 3079.22 L161.862 3075.28 Z" fill="#000000" fill-rule="evenodd" fill-opacity="1"></path><path clip-path="url(#clip120)" d="M201.213 3047.74 Q197.602 3047.74 195.774 3051.3 Q193.968 3054.84 193.968 3061.97 Q193.968 3069.08 195.774 3072.65 Q197.602 3076.19 201.213 3076.19 Q204.848 3076.19 206.653 3072.65 Q208.482 3069.08 208.482 3061.97 Q208.482 3054.84 206.653 3051.3 Q204.848 3047.74 201.213 3047.74 M201.213 3044.03 Q207.024 3044.03 210.079 3048.64 Q213.158 3053.22 213.158 3061.97 Q213.158 3070.7 210.079 3075.31 Q207.024 3079.89 201.213 3079.89 Q195.403 3079.89 192.325 3075.31 Q189.269 3070.7 189.269 3061.97 Q189.269 3053.22 192.325 3048.64 Q195.403 3044.03 201.213 3044.03 Z" fill="#000000" fill-rule="evenodd" fill-opacity="1"></path><path clip-path="url(#clip120)" d="M231.375 3047.74 Q227.764 3047.74 225.936 3051.3 Q224.13 3054.84 224.13 3061.97 Q224.13 3069.08 225.936 3072.65 Q227.764 3076.19 231.375 3076.19 Q235.01 3076.19 236.815 3072.65 Q238.644 3069.08 238.644 3061.97 Q238.644 3054.84 236.815 3051.3 Q235.01 3047.74 231.375 3047.74 M231.375 3044.03 Q237.186 3044.03 240.241 3048.64 Q243.32 3053.22 243.32 3061.97 Q243.32 3070.7 240.241 3075.31 Q237.186 3079.89 231.375 3079.89 Q225.565 3079.89 222.487 3075.31 Q219.431 3070.7 219.431 3061.97 Q219.431 3053.22 222.487 3048.64 Q225.565 3044.03 231.375 3044.03 Z" fill="#000000" fill-rule="evenodd" fill-opacity="1"></path><path clip-path="url(#clip120)" d="M40.4505 1836.62 L58.8068 1836.62 L58.8068 1840.55 L44.7328 1840.55 L44.7328 1849.02 Q45.7513 1848.68 46.7699 1848.51 Q47.7884 1848.33 48.8069 1848.33 Q54.5939 1848.33 57.9735 1851.5 Q61.3531 1854.67 61.3531 1860.09 Q61.3531 1865.67 57.8809 1868.77 Q54.4087 1871.85 48.0893 1871.85 Q45.9134 1871.85 43.6449 1871.48 Q41.3995 1871.11 38.9921 1870.37 L38.9921 1865.67 Q41.0754 1866.8 43.2977 1867.36 Q45.5199 1867.91 47.9967 1867.91 Q52.0013 1867.91 54.3393 1865.81 Q56.6772 1863.7 56.6772 1860.09 Q56.6772 1856.48 54.3393 1854.37 Q52.0013 1852.26 47.9967 1852.26 Q46.1217 1852.26 44.2467 1852.68 Q42.3949 1853.1 40.4505 1853.98 L40.4505 1836.62 Z" fill="#000000" fill-rule="evenodd" fill-opacity="1"></path><path clip-path="url(#clip120)" d="M80.566 1839.69 Q76.9549 1839.69 75.1262 1843.26 Q73.3206 1846.8 73.3206 1853.93 Q73.3206 1861.04 75.1262 1864.6 Q76.9549 1868.14 80.566 1868.14 Q84.2002 1868.14 86.0058 1864.6 Q87.8345 1861.04 87.8345 1853.93 Q87.8345 1846.8 86.0058 1843.26 Q84.2002 1839.69 80.566 1839.69 M80.566 1835.99 Q86.3761 1835.99 89.4317 1840.6 Q92.5104 1845.18 92.5104 1853.93 Q92.5104 1862.66 89.4317 1867.26 Q86.3761 1871.85 80.566 1871.85 Q74.7558 1871.85 71.6771 1867.26 Q68.6216 1862.66 68.6216 1853.93 Q68.6216 1845.18 71.6771 1840.6 Q74.7558 1835.99 80.566 1835.99 Z" fill="#000000" fill-rule="evenodd" fill-opacity="1"></path><path clip-path="url(#clip120)" d="M114.894 1852.54 Q118.251 1853.26 120.126 1855.53 Q122.024 1857.8 122.024 1861.13 Q122.024 1866.24 118.506 1869.05 Q114.987 1871.85 108.506 1871.85 Q106.33 1871.85 104.015 1871.41 Q101.723 1870.99 99.2696 1870.13 L99.2696 1865.62 Q101.214 1866.75 103.529 1867.33 Q105.844 1867.91 108.367 1867.91 Q112.765 1867.91 115.057 1866.18 Q117.371 1864.44 117.371 1861.13 Q117.371 1858.07 115.219 1856.36 Q113.089 1854.62 109.27 1854.62 L105.242 1854.62 L105.242 1850.78 L109.455 1850.78 Q112.904 1850.78 114.732 1849.42 Q116.561 1848.03 116.561 1845.43 Q116.561 1842.77 114.663 1841.36 Q112.788 1839.93 109.27 1839.93 Q107.348 1839.93 105.149 1840.34 Q102.95 1840.76 100.311 1841.64 L100.311 1837.47 Q102.973 1836.73 105.288 1836.36 Q107.626 1835.99 109.686 1835.99 Q115.01 1835.99 118.112 1838.42 Q121.214 1840.83 121.214 1844.95 Q121.214 1847.82 119.57 1849.81 Q117.927 1851.78 114.894 1852.54 Z" fill="#000000" fill-rule="evenodd" fill-opacity="1"></path><path clip-path="url(#clip120)" d="M134.918 1867.24 L151.237 1867.24 L151.237 1871.18 L129.293 1871.18 L129.293 1867.24 Q131.955 1864.49 136.538 1859.86 Q141.144 1855.2 142.325 1853.86 Q144.57 1851.34 145.45 1849.6 Q146.353 1847.84 146.353 1846.15 Q146.353 1843.4 144.408 1841.66 Q142.487 1839.93 139.385 1839.93 Q137.186 1839.93 134.732 1840.69 Q132.302 1841.45 129.524 1843 L129.524 1838.28 Q132.348 1837.15 134.802 1836.57 Q137.255 1835.99 139.293 1835.99 Q144.663 1835.99 147.857 1838.68 Q151.052 1841.36 151.052 1845.85 Q151.052 1847.98 150.242 1849.9 Q149.454 1851.8 147.348 1854.39 Q146.769 1855.06 143.667 1858.28 Q140.566 1861.48 134.918 1867.24 Z" fill="#000000" fill-rule="evenodd" fill-opacity="1"></path><path clip-path="url(#clip120)" d="M165.079 1867.24 L181.399 1867.24 L181.399 1871.18 L159.454 1871.18 L159.454 1867.24 Q162.116 1864.49 166.7 1859.86 Q171.306 1855.2 172.487 1853.86 Q174.732 1851.34 175.612 1849.6 Q176.515 1847.84 176.515 1846.15 Q176.515 1843.4 174.57 1841.66 Q172.649 1839.93 169.547 1839.93 Q167.348 1839.93 164.894 1840.69 Q162.464 1841.45 159.686 1843 L159.686 1838.28 Q162.51 1837.15 164.964 1836.57 Q167.417 1835.99 169.454 1835.99 Q174.825 1835.99 178.019 1838.68 Q181.214 1841.36 181.214 1845.85 Q181.214 1847.98 180.403 1849.9 Q179.616 1851.8 177.51 1854.39 Q176.931 1855.06 173.829 1858.28 Q170.728 1861.48 165.079 1867.24 Z" fill="#000000" fill-rule="evenodd" fill-opacity="1"></path><path clip-path="url(#clip120)" d="M201.213 1839.69 Q197.602 1839.69 195.774 1843.26 Q193.968 1846.8 193.968 1853.93 Q193.968 1861.04 195.774 1864.6 Q197.602 1868.14 201.213 1868.14 Q204.848 1868.14 206.653 1864.6 Q208.482 1861.04 208.482 1853.93 Q208.482 1846.8 206.653 1843.26 Q204.848 1839.69 201.213 1839.69 M201.213 1835.99 Q207.024 1835.99 210.079 1840.6 Q213.158 1845.18 213.158 1853.93 Q213.158 1862.66 210.079 1867.26 Q207.024 1871.85 201.213 1871.85 Q195.403 1871.85 192.325 1867.26 Q189.269 1862.66 189.269 1853.93 Q189.269 1845.18 192.325 1840.6 Q195.403 1835.99 201.213 1835.99 Z" fill="#000000" fill-rule="evenodd" fill-opacity="1"></path><path clip-path="url(#clip120)" d="M231.375 1839.69 Q227.764 1839.69 225.936 1843.26 Q224.13 1846.8 224.13 1853.93 Q224.13 1861.04 225.936 1864.6 Q227.764 1868.14 231.375 1868.14 Q235.01 1868.14 236.815 1864.6 Q238.644 1861.04 238.644 1853.93 Q238.644 1846.8 236.815 1843.26 Q235.01 1839.69 231.375 1839.69 M231.375 1835.99 Q237.186 1835.99 240.241 1840.6 Q243.32 1845.18 243.32 1853.93 Q243.32 1862.66 240.241 1867.26 Q237.186 1871.85 231.375 1871.85 Q225.565 1871.85 222.487 1867.26 Q219.431 1862.66 219.431 1853.93 Q219.431 1845.18 222.487 1840.6 Q225.565 1835.99 231.375 1835.99 Z" fill="#000000" fill-rule="evenodd" fill-opacity="1"></path><path clip-path="url(#clip120)" d="M40.4505 628.571 L58.8068 628.571 L58.8068 632.507 L44.7328 632.507 L44.7328 640.979 Q45.7513 640.631 46.7699 640.469 Q47.7884 640.284 48.8069 640.284 Q54.5939 640.284 57.9735 643.456 Q61.3531 646.627 61.3531 652.043 Q61.3531 657.622 57.8809 660.724 Q54.4087 663.803 48.0893 663.803 Q45.9134 663.803 43.6449 663.432 Q41.3995 663.062 38.9921 662.321 L38.9921 657.622 Q41.0754 658.756 43.2977 659.312 Q45.5199 659.868 47.9967 659.868 Q52.0013 659.868 54.3393 657.761 Q56.6772 655.655 56.6772 652.043 Q56.6772 648.432 54.3393 646.326 Q52.0013 644.219 47.9967 644.219 Q46.1217 644.219 44.2467 644.636 Q42.3949 645.053 40.4505 645.932 L40.4505 628.571 Z" fill="#000000" fill-rule="evenodd" fill-opacity="1"></path><path clip-path="url(#clip120)" d="M80.566 631.65 Q76.9549 631.65 75.1262 635.215 Q73.3206 638.757 73.3206 645.886 Q73.3206 652.993 75.1262 656.557 Q76.9549 660.099 80.566 660.099 Q84.2002 660.099 86.0058 656.557 Q87.8345 652.993 87.8345 645.886 Q87.8345 638.757 86.0058 635.215 Q84.2002 631.65 80.566 631.65 M80.566 627.946 Q86.3761 627.946 89.4317 632.553 Q92.5104 637.136 92.5104 645.886 Q92.5104 654.613 89.4317 659.219 Q86.3761 663.803 80.566 663.803 Q74.7558 663.803 71.6771 659.219 Q68.6216 654.613 68.6216 645.886 Q68.6216 637.136 71.6771 632.553 Q74.7558 627.946 80.566 627.946 Z" fill="#000000" fill-rule="evenodd" fill-opacity="1"></path><path clip-path="url(#clip120)" d="M114.894 644.497 Q118.251 645.215 120.126 647.483 Q122.024 649.752 122.024 653.085 Q122.024 658.201 118.506 661.002 Q114.987 663.803 108.506 663.803 Q106.33 663.803 104.015 663.363 Q101.723 662.946 99.2696 662.09 L99.2696 657.576 Q101.214 658.71 103.529 659.289 Q105.844 659.868 108.367 659.868 Q112.765 659.868 115.057 658.131 Q117.371 656.395 117.371 653.085 Q117.371 650.03 115.219 648.317 Q113.089 646.581 109.27 646.581 L105.242 646.581 L105.242 642.738 L109.455 642.738 Q112.904 642.738 114.732 641.372 Q116.561 639.983 116.561 637.391 Q116.561 634.729 114.663 633.317 Q112.788 631.882 109.27 631.882 Q107.348 631.882 105.149 632.298 Q102.95 632.715 100.311 633.594 L100.311 629.428 Q102.973 628.687 105.288 628.317 Q107.626 627.946 109.686 627.946 Q115.01 627.946 118.112 630.377 Q121.214 632.784 121.214 636.905 Q121.214 639.775 119.57 641.766 Q117.927 643.733 114.894 644.497 Z" fill="#000000" fill-rule="evenodd" fill-opacity="1"></path><path clip-path="url(#clip120)" d="M134.918 659.196 L151.237 659.196 L151.237 663.131 L129.293 663.131 L129.293 659.196 Q131.955 656.442 136.538 651.812 Q141.144 647.159 142.325 645.817 Q144.57 643.294 145.45 641.557 Q146.353 639.798 146.353 638.108 Q146.353 635.354 144.408 633.618 Q142.487 631.882 139.385 631.882 Q137.186 631.882 134.732 632.645 Q132.302 633.409 129.524 634.96 L129.524 630.238 Q132.348 629.104 134.802 628.525 Q137.255 627.946 139.293 627.946 Q144.663 627.946 147.857 630.632 Q151.052 633.317 151.052 637.807 Q151.052 639.937 150.242 641.858 Q149.454 643.756 147.348 646.349 Q146.769 647.02 143.667 650.238 Q140.566 653.432 134.918 659.196 Z" fill="#000000" fill-rule="evenodd" fill-opacity="1"></path><path clip-path="url(#clip120)" d="M175.218 644.497 Q178.575 645.215 180.45 647.483 Q182.348 649.752 182.348 653.085 Q182.348 658.201 178.829 661.002 Q175.311 663.803 168.829 663.803 Q166.653 663.803 164.339 663.363 Q162.047 662.946 159.593 662.09 L159.593 657.576 Q161.538 658.71 163.853 659.289 Q166.167 659.868 168.691 659.868 Q173.089 659.868 175.38 658.131 Q177.695 656.395 177.695 653.085 Q177.695 650.03 175.542 648.317 Q173.413 646.581 169.593 646.581 L165.566 646.581 L165.566 642.738 L169.778 642.738 Q173.228 642.738 175.056 641.372 Q176.885 639.983 176.885 637.391 Q176.885 634.729 174.987 633.317 Q173.112 631.882 169.593 631.882 Q167.672 631.882 165.473 632.298 Q163.274 632.715 160.635 633.594 L160.635 629.428 Q163.297 628.687 165.612 628.317 Q167.95 627.946 170.01 627.946 Q175.334 627.946 178.436 630.377 Q181.538 632.784 181.538 636.905 Q181.538 639.775 179.894 641.766 Q178.251 643.733 175.218 644.497 Z" fill="#000000" fill-rule="evenodd" fill-opacity="1"></path><path clip-path="url(#clip120)" d="M201.213 631.65 Q197.602 631.65 195.774 635.215 Q193.968 638.757 193.968 645.886 Q193.968 652.993 195.774 656.557 Q197.602 660.099 201.213 660.099 Q204.848 660.099 206.653 656.557 Q208.482 652.993 208.482 645.886 Q208.482 638.757 206.653 635.215 Q204.848 631.65 201.213 631.65 M201.213 627.946 Q207.024 627.946 210.079 632.553 Q213.158 637.136 213.158 645.886 Q213.158 654.613 210.079 659.219 Q207.024 663.803 201.213 663.803 Q195.403 663.803 192.325 659.219 Q189.269 654.613 189.269 645.886 Q189.269 637.136 192.325 632.553 Q195.403 627.946 201.213 627.946 Z" fill="#000000" fill-rule="evenodd" fill-opacity="1"></path><path clip-path="url(#clip120)" d="M231.375 631.65 Q227.764 631.65 225.936 635.215 Q224.13 638.757 224.13 645.886 Q224.13 652.993 225.936 656.557 Q227.764 660.099 231.375 660.099 Q235.01 660.099 236.815 656.557 Q238.644 652.993 238.644 645.886 Q238.644 638.757 236.815 635.215 Q235.01 631.65 231.375 631.65 M231.375 627.946 Q237.186 627.946 240.241 632.553 Q243.32 637.136 243.32 645.886 Q243.32 654.613 240.241 659.219 Q237.186 663.803 231.375 663.803 Q225.565 663.803 222.487 659.219 Q219.431 654.613 219.431 645.886 Q219.431 637.136 222.487 632.553 Q225.565 627.946 231.375 627.946 Z" fill="#000000" fill-rule="evenodd" fill-opacity="1"></path><polyline clip-path="url(#clip122)" style="stroke:#009af9; stroke-linecap:butt; stroke-linejoin:round; stroke-width:4; stroke-opacity:1; fill:none" points="
  482.77,2072.21 524.633,4014.43 566.495,4404.28 608.358,4421.82 650.221,4422.61 692.083,4421.82 733.946,4419.23 775.808,4421.85 817.671,4421.87 859.534,4421.85 
  901.396,4421.82 943.259,4421.95 985.121,4419.69 1026.98,4421.88 1068.85,4341.85 1110.71,4421.85 1152.57,4421.85 1194.43,4409.77 1236.3,4400.9 1278.16,4420.73 
  1320.02,4425.03 1361.88,4419.71 1403.75,4421.86 1445.61,4409.4 1487.47,4421.91 1529.34,4432.03 1571.2,4421.03 1613.06,4421.87 1654.92,4421.84 1696.79,4437.75 
  1738.65,4421.85 1780.51,4421.86 1822.37,4421.87 1864.24,4421.85 1906.1,4421.85 1947.96,4421.85 1989.82,4421.85 2031.69,4421.89 2073.55,4421.65 2115.41,4421.91 
  2157.27,4421.87 2199.14,4419.02 2241,4421.92 2282.86,4454.3 2324.72,4418.4 2366.59,4421.86 2408.45,4422.27 2450.31,4422.87 2492.18,4421.86 2534.04,4421.85 
  2575.9,4424.4 2617.76,4419.39 2659.63,4411.44 2701.49,4421.91 2743.35,4423.18 2785.21,4421.85 2827.08,4421.86 2868.94,4421.43 2910.8,4421.85 2952.66,4424.38 
  2994.53,4421.86 3036.39,4421.85 3078.25,4421.85 3120.11,4409.6 3161.98,4421.85 3203.84,4422.45 3245.7,4421.85 3287.56,4421.85 3329.43,4422.35 3371.29,4421.14 
  3413.15,4440.28 3455.02,4418.27 3496.88,4421.85 3538.74,4421.85 3580.6,4421.86 3622.47,4421.85 3664.33,4421.85 3706.19,4421.88 3748.05,4421.85 3789.92,4421.85 
  3831.78,4421.85 3873.64,4421.86 3915.5,4421.86 3957.37,4421.85 3999.23,4421.88 4041.09,4383.93 4082.95,4422.74 4124.82,4421.76 4166.68,4421.85 4208.54,4421.85 
  4250.4,4394.79 4292.27,4427.85 4334.13,4421.76 4375.99,4421.86 4417.86,4422.51 4459.72,4423.77 4501.58,4421.85 4543.44,4421.85 4585.31,4421.85 4627.17,4421.85 
  
  "></polyline>
<polyline clip-path="url(#clip122)" style="stroke:#e26f46; stroke-linecap:butt; stroke-linejoin:round; stroke-width:4; stroke-opacity:1; fill:none" points="
  482.77,177.148 524.633,351.042 566.495,529.448 608.358,711.054 650.221,894.678 692.083,1079.24 733.946,1263.77 775.808,1447.38 817.671,1629.25 859.534,1808.65 
  901.396,1984.9 943.259,2157.38 985.121,2325.55 1026.98,2488.9 1068.85,2646.98 1110.71,2799.39 1152.57,2945.79 1194.43,3085.88 1236.3,3219.41 1278.16,3346.16 
  1320.02,3465.98 1361.88,3578.76 1403.75,3684.41 1445.61,3782.93 1487.47,3874.31 1529.34,3958.61 1571.2,4035.94 1613.06,4106.4 1654.92,4170.17 1696.79,4227.44 
  1738.65,4278.43 1780.51,4323.4 1822.37,4362.6 1864.24,4396.34 1906.1,4424.9 1947.96,4448.62 1989.82,4467.8 2031.69,4482.77 2073.55,4493.86 2115.41,4501.38 
  2157.27,4505.65 2199.14,4507.12 2241,4507.26 2282.86,4507.26 2324.72,4507.26 2366.59,4507.26 2408.45,4507.26 2450.31,4507.26 2492.18,4507.26 2534.04,4507.26 
  2575.9,4507.26 2617.76,4507.26 2659.63,4507.26 2701.49,4507.26 2743.35,4507.26 2785.21,4507.26 2827.08,4507.26 2868.94,4507.26 2910.8,4507.26 2952.66,4507.26 
  2994.53,4507.26 3036.39,4507.26 3078.25,4507.26 3120.11,4507.26 3161.98,4507.26 3203.84,4507.26 3245.7,4507.26 3287.56,4507.26 3329.43,4507.26 3371.29,4507.26 
  3413.15,4507.26 3455.02,4507.26 3496.88,4507.26 3538.74,4507.26 3580.6,4507.26 3622.47,4507.26 3664.33,4507.26 3706.19,4507.26 3748.05,4507.26 3789.92,4507.26 
  3831.78,4507.26 3873.64,4507.26 3915.5,4507.26 3957.37,4507.26 3999.23,4507.26 4041.09,4507.26 4082.95,4507.26 4124.82,4507.26 4166.68,4507.26 4208.54,4507.26 
  4250.4,4507.26 4292.27,4507.26 4334.13,4507.26 4375.99,4507.26 4417.86,4507.26 4459.72,4507.26 4501.58,4507.26 4543.44,4507.26 4585.31,4507.26 4627.17,4507.26 
  
  "></polyline>
<path clip-path="url(#clip120)" d="
M3655.61 355.762 L4604.84 355.762 L4604.84 200.242 L3655.61 200.242  Z
  " fill="#ffffff" fill-rule="evenodd" fill-opacity="1"></path>
<polyline clip-path="url(#clip120)" style="stroke:#000000; stroke-linecap:butt; stroke-linejoin:round; stroke-width:4; stroke-opacity:1; fill:none" points="
  3655.61,355.762 4604.84,355.762 4604.84,200.242 3655.61,200.242 3655.61,355.762 
  "></polyline>
<polyline clip-path="url(#clip120)" style="stroke:#009af9; stroke-linecap:butt; stroke-linejoin:round; stroke-width:4; stroke-opacity:1; fill:none" points="
  3704.92,252.082 4000.75,252.082 
  "></polyline>
<path clip-path="url(#clip120)" d="M4066.07 237.973 Q4060.98 237.973 4057.97 241.769 Q4054.98 245.565 4054.98 252.116 Q4054.98 258.644 4057.97 262.44 Q4060.98 266.237 4066.07 266.237 Q4071.16 266.237 4074.13 262.44 Q4077.11 258.644 4077.11 252.116 Q4077.11 245.565 4074.13 241.769 Q4071.16 237.973 4066.07 237.973 M4066.07 234.177 Q4073.34 234.177 4077.69 239.061 Q4082.04 243.922 4082.04 252.116 Q4082.04 260.288 4077.69 265.172 Q4073.34 270.033 4066.07 270.033 Q4058.78 270.033 4054.41 265.172 Q4050.05 260.311 4050.05 252.116 Q4050.05 243.922 4054.41 239.061 Q4058.78 234.177 4066.07 234.177 Z" fill="#000000" fill-rule="evenodd" fill-opacity="1"></path><path clip-path="url(#clip120)" d="M4093.29 265.473 L4093.29 279.223 L4089.01 279.223 L4089.01 243.436 L4093.29 243.436 L4093.29 247.371 Q4094.64 245.056 4096.67 243.945 Q4098.73 242.811 4101.58 242.811 Q4106.3 242.811 4109.24 246.561 Q4112.21 250.311 4112.21 256.422 Q4112.21 262.533 4109.24 266.283 Q4106.3 270.033 4101.58 270.033 Q4098.73 270.033 4096.67 268.922 Q4094.64 267.787 4093.29 265.473 M4107.78 256.422 Q4107.78 251.723 4105.84 249.061 Q4103.92 246.376 4100.54 246.376 Q4097.16 246.376 4095.22 249.061 Q4093.29 251.723 4093.29 256.422 Q4093.29 261.121 4095.22 263.806 Q4097.16 266.468 4100.54 266.468 Q4103.92 266.468 4105.84 263.806 Q4107.78 261.121 4107.78 256.422 Z" fill="#000000" fill-rule="evenodd" fill-opacity="1"></path><path clip-path="url(#clip120)" d="M4123.48 236.075 L4123.48 243.436 L4132.25 243.436 L4132.25 246.746 L4123.48 246.746 L4123.48 260.82 Q4123.48 263.991 4124.34 264.894 Q4125.22 265.797 4127.88 265.797 L4132.25 265.797 L4132.25 269.362 L4127.88 269.362 Q4122.95 269.362 4121.07 267.533 Q4119.2 265.681 4119.2 260.82 L4119.2 246.746 L4116.07 246.746 L4116.07 243.436 L4119.2 243.436 L4119.2 236.075 L4123.48 236.075 Z" fill="#000000" fill-rule="evenodd" fill-opacity="1"></path><path clip-path="url(#clip120)" d="M4137.85 243.436 L4142.11 243.436 L4142.11 269.362 L4137.85 269.362 L4137.85 243.436 M4137.85 233.343 L4142.11 233.343 L4142.11 238.737 L4137.85 238.737 L4137.85 233.343 Z" fill="#000000" fill-rule="evenodd" fill-opacity="1"></path><path clip-path="url(#clip120)" d="M4171.21 248.413 Q4172.81 245.542 4175.03 244.177 Q4177.25 242.811 4180.26 242.811 Q4184.31 242.811 4186.51 245.658 Q4188.71 248.482 4188.71 253.713 L4188.71 269.362 L4184.43 269.362 L4184.43 253.852 Q4184.43 250.126 4183.11 248.32 Q4181.79 246.514 4179.08 246.514 Q4175.77 246.514 4173.85 248.714 Q4171.93 250.913 4171.93 254.709 L4171.93 269.362 L4167.65 269.362 L4167.65 253.852 Q4167.65 250.102 4166.33 248.32 Q4165.01 246.514 4162.25 246.514 Q4158.99 246.514 4157.07 248.737 Q4155.15 250.936 4155.15 254.709 L4155.15 269.362 L4150.86 269.362 L4150.86 243.436 L4155.15 243.436 L4155.15 247.464 Q4156.6 245.079 4158.64 243.945 Q4160.68 242.811 4163.48 242.811 Q4166.3 242.811 4168.27 244.246 Q4170.26 245.681 4171.21 248.413 Z" fill="#000000" fill-rule="evenodd" fill-opacity="1"></path><path clip-path="url(#clip120)" d="M4197.21 243.436 L4201.46 243.436 L4201.46 269.362 L4197.21 269.362 L4197.21 243.436 M4197.21 233.343 L4201.46 233.343 L4201.46 238.737 L4197.21 238.737 L4197.21 233.343 Z" fill="#000000" fill-rule="evenodd" fill-opacity="1"></path><path clip-path="url(#clip120)" d="M4226.9 244.2 L4226.9 248.227 Q4225.1 247.301 4223.15 246.839 Q4221.21 246.376 4219.13 246.376 Q4215.96 246.376 4214.36 247.348 Q4212.78 248.32 4212.78 250.264 Q4212.78 251.746 4213.92 252.602 Q4215.05 253.436 4218.48 254.2 L4219.94 254.524 Q4224.47 255.496 4226.37 257.278 Q4228.29 259.038 4228.29 262.209 Q4228.29 265.82 4225.42 267.926 Q4222.58 270.033 4217.58 270.033 Q4215.49 270.033 4213.22 269.616 Q4210.98 269.223 4208.48 268.412 L4208.48 264.014 Q4210.84 265.241 4213.13 265.866 Q4215.42 266.468 4217.67 266.468 Q4220.68 266.468 4222.3 265.45 Q4223.92 264.408 4223.92 262.533 Q4223.92 260.797 4222.74 259.871 Q4221.58 258.945 4217.62 258.088 L4216.14 257.741 Q4212.18 256.908 4210.42 255.195 Q4208.66 253.459 4208.66 250.45 Q4208.66 246.792 4211.26 244.802 Q4213.85 242.811 4218.62 242.811 Q4220.98 242.811 4223.06 243.158 Q4225.15 243.505 4226.9 244.2 Z" fill="#000000" fill-rule="evenodd" fill-opacity="1"></path><path clip-path="url(#clip120)" d="M4257.25 255.334 L4257.25 257.417 L4237.67 257.417 Q4237.95 261.815 4240.31 264.13 Q4242.69 266.422 4246.93 266.422 Q4249.38 266.422 4251.67 265.82 Q4253.99 265.218 4256.26 264.014 L4256.26 268.042 Q4253.96 269.014 4251.56 269.524 Q4249.15 270.033 4246.67 270.033 Q4240.47 270.033 4236.83 266.422 Q4233.22 262.811 4233.22 256.653 Q4233.22 250.288 4236.65 246.561 Q4240.1 242.811 4245.93 242.811 Q4251.16 242.811 4254.2 246.19 Q4257.25 249.547 4257.25 255.334 M4252.99 254.084 Q4252.95 250.589 4251.02 248.505 Q4249.13 246.422 4245.98 246.422 Q4242.41 246.422 4240.26 248.436 Q4238.13 250.45 4237.81 254.107 L4252.99 254.084 Z" fill="#000000" fill-rule="evenodd" fill-opacity="1"></path><path clip-path="url(#clip120)" d="M4279.27 247.417 Q4278.55 247.001 4277.69 246.815 Q4276.86 246.607 4275.84 246.607 Q4272.23 246.607 4270.28 248.968 Q4268.36 251.306 4268.36 255.704 L4268.36 269.362 L4264.08 269.362 L4264.08 243.436 L4268.36 243.436 L4268.36 247.464 Q4269.71 245.102 4271.86 243.968 Q4274.01 242.811 4277.09 242.811 Q4277.53 242.811 4278.06 242.88 Q4278.59 242.927 4279.24 243.042 L4279.27 247.417 Z" fill="#000000" fill-rule="evenodd" fill-opacity="1"></path><path clip-path="url(#clip120)" d="M4300.26 244.2 L4300.26 248.227 Q4298.46 247.301 4296.51 246.839 Q4294.57 246.376 4292.48 246.376 Q4289.31 246.376 4287.71 247.348 Q4286.14 248.32 4286.14 250.264 Q4286.14 251.746 4287.27 252.602 Q4288.41 253.436 4291.83 254.2 L4293.29 254.524 Q4297.83 255.496 4299.73 257.278 Q4301.65 259.038 4301.65 262.209 Q4301.65 265.82 4298.78 267.926 Q4295.93 270.033 4290.93 270.033 Q4288.85 270.033 4286.58 269.616 Q4284.33 269.223 4281.83 268.412 L4281.83 264.014 Q4284.2 265.241 4286.49 265.866 Q4288.78 266.468 4291.02 266.468 Q4294.03 266.468 4295.65 265.45 Q4297.27 264.408 4297.27 262.533 Q4297.27 260.797 4296.09 259.871 Q4294.94 258.945 4290.98 258.088 L4289.5 257.741 Q4285.54 256.908 4283.78 255.195 Q4282.02 253.459 4282.02 250.45 Q4282.02 246.792 4284.61 244.802 Q4287.21 242.811 4291.97 242.811 Q4294.33 242.811 4296.42 243.158 Q4298.5 243.505 4300.26 244.2 Z" fill="#000000" fill-rule="evenodd" fill-opacity="1"></path><path clip-path="url(#clip120)" d="M4309.03 263.482 L4313.92 263.482 L4313.92 269.362 L4309.03 269.362 L4309.03 263.482 Z" fill="#000000" fill-rule="evenodd" fill-opacity="1"></path><path clip-path="url(#clip120)" d="M4335.24 239.408 L4328.89 256.607 L4341.6 256.607 L4335.24 239.408 M4332.6 234.802 L4337.9 234.802 L4351.07 269.362 L4346.21 269.362 L4343.06 260.496 L4327.48 260.496 L4324.33 269.362 L4319.4 269.362 L4332.6 234.802 Z" fill="#000000" fill-rule="evenodd" fill-opacity="1"></path><path clip-path="url(#clip120)" d="M4372.16 247.371 L4372.16 233.343 L4376.42 233.343 L4376.42 269.362 L4372.16 269.362 L4372.16 265.473 Q4370.82 267.787 4368.76 268.922 Q4366.72 270.033 4363.85 270.033 Q4359.15 270.033 4356.19 266.283 Q4353.25 262.533 4353.25 256.422 Q4353.25 250.311 4356.19 246.561 Q4359.15 242.811 4363.85 242.811 Q4366.72 242.811 4368.76 243.945 Q4370.82 245.056 4372.16 247.371 M4357.64 256.422 Q4357.64 261.121 4359.57 263.806 Q4361.51 266.468 4364.89 266.468 Q4368.27 266.468 4370.21 263.806 Q4372.16 261.121 4372.16 256.422 Q4372.16 251.723 4370.21 249.061 Q4368.27 246.376 4364.89 246.376 Q4361.51 246.376 4359.57 249.061 Q4357.64 251.723 4357.64 256.422 Z" fill="#000000" fill-rule="evenodd" fill-opacity="1"></path><path clip-path="url(#clip120)" d="M4396.97 256.329 Q4391.81 256.329 4389.82 257.51 Q4387.83 258.69 4387.83 261.538 Q4387.83 263.806 4389.31 265.149 Q4390.82 266.468 4393.39 266.468 Q4396.93 266.468 4399.06 263.968 Q4401.21 261.445 4401.21 257.278 L4401.21 256.329 L4396.97 256.329 M4405.47 254.57 L4405.47 269.362 L4401.21 269.362 L4401.21 265.426 Q4399.75 267.787 4397.57 268.922 Q4395.4 270.033 4392.25 270.033 Q4388.27 270.033 4385.91 267.811 Q4383.57 265.565 4383.57 261.815 Q4383.57 257.44 4386.49 255.218 Q4389.43 252.996 4395.24 252.996 L4401.21 252.996 L4401.21 252.579 Q4401.21 249.639 4399.26 248.042 Q4397.34 246.422 4393.85 246.422 Q4391.63 246.422 4389.52 246.954 Q4387.41 247.487 4385.47 248.551 L4385.47 244.616 Q4387.81 243.714 4390.01 243.274 Q4392.2 242.811 4394.29 242.811 Q4399.91 242.811 4402.69 245.727 Q4405.47 248.644 4405.47 254.57 Z" fill="#000000" fill-rule="evenodd" fill-opacity="1"></path><path clip-path="url(#clip120)" d="M4414.43 234.802 L4421.39 234.802 L4430.21 258.32 L4439.08 234.802 L4446.05 234.802 L4446.05 269.362 L4441.49 269.362 L4441.49 239.014 L4432.57 262.718 L4427.88 262.718 L4418.96 239.014 L4418.96 269.362 L4414.43 269.362 L4414.43 234.802 Z" fill="#000000" fill-rule="evenodd" fill-opacity="1"></path><path clip-path="url(#clip120)" d="M4466.93 256.329 Q4461.76 256.329 4459.77 257.51 Q4457.78 258.69 4457.78 261.538 Q4457.78 263.806 4459.26 265.149 Q4460.77 266.468 4463.34 266.468 Q4466.88 266.468 4469.01 263.968 Q4471.16 261.445 4471.16 257.278 L4471.16 256.329 L4466.93 256.329 M4475.42 254.57 L4475.42 269.362 L4471.16 269.362 L4471.16 265.426 Q4469.7 267.787 4467.53 268.922 Q4465.35 270.033 4462.2 270.033 Q4458.22 270.033 4455.86 267.811 Q4453.52 265.565 4453.52 261.815 Q4453.52 257.44 4456.44 255.218 Q4459.38 252.996 4465.19 252.996 L4471.16 252.996 L4471.16 252.579 Q4471.16 249.639 4469.22 248.042 Q4467.3 246.422 4463.8 246.422 Q4461.58 246.422 4459.47 246.954 Q4457.37 247.487 4455.42 248.551 L4455.42 244.616 Q4457.76 243.714 4459.96 243.274 Q4462.16 242.811 4464.24 242.811 Q4469.87 242.811 4472.64 245.727 Q4475.42 248.644 4475.42 254.57 Z" fill="#000000" fill-rule="evenodd" fill-opacity="1"></path><path clip-path="url(#clip120)" d="M4505.75 243.436 L4496.37 256.051 L4506.23 269.362 L4501.21 269.362 L4493.66 259.176 L4486.12 269.362 L4481.09 269.362 L4491.16 255.797 L4481.95 243.436 L4486.97 243.436 L4493.85 252.672 L4500.72 243.436 L4505.75 243.436 Z" fill="#000000" fill-rule="evenodd" fill-opacity="1"></path><polyline clip-path="url(#clip120)" style="stroke:#e26f46; stroke-linecap:butt; stroke-linejoin:round; stroke-width:4; stroke-opacity:1; fill:none" points="
  3704.92,303.922 4000.75,303.922 
  "></polyline>
<path clip-path="url(#clip120)" d="M4066.07 289.813 Q4060.98 289.813 4057.97 293.609 Q4054.98 297.405 4054.98 303.956 Q4054.98 310.484 4057.97 314.28 Q4060.98 318.077 4066.07 318.077 Q4071.16 318.077 4074.13 314.28 Q4077.11 310.484 4077.11 303.956 Q4077.11 297.405 4074.13 293.609 Q4071.16 289.813 4066.07 289.813 M4066.07 286.017 Q4073.34 286.017 4077.69 290.901 Q4082.04 295.762 4082.04 303.956 Q4082.04 312.128 4077.69 317.012 Q4073.34 321.873 4066.07 321.873 Q4058.78 321.873 4054.41 317.012 Q4050.05 312.151 4050.05 303.956 Q4050.05 295.762 4054.41 290.901 Q4058.78 286.017 4066.07 286.017 Z" fill="#000000" fill-rule="evenodd" fill-opacity="1"></path><path clip-path="url(#clip120)" d="M4093.29 317.313 L4093.29 331.063 L4089.01 331.063 L4089.01 295.276 L4093.29 295.276 L4093.29 299.211 Q4094.64 296.896 4096.67 295.785 Q4098.73 294.651 4101.58 294.651 Q4106.3 294.651 4109.24 298.401 Q4112.21 302.151 4112.21 308.262 Q4112.21 314.373 4109.24 318.123 Q4106.3 321.873 4101.58 321.873 Q4098.73 321.873 4096.67 320.762 Q4094.64 319.627 4093.29 317.313 M4107.78 308.262 Q4107.78 303.563 4105.84 300.901 Q4103.92 298.216 4100.54 298.216 Q4097.16 298.216 4095.22 300.901 Q4093.29 303.563 4093.29 308.262 Q4093.29 312.961 4095.22 315.646 Q4097.16 318.308 4100.54 318.308 Q4103.92 318.308 4105.84 315.646 Q4107.78 312.961 4107.78 308.262 Z" fill="#000000" fill-rule="evenodd" fill-opacity="1"></path><path clip-path="url(#clip120)" d="M4123.48 287.915 L4123.48 295.276 L4132.25 295.276 L4132.25 298.586 L4123.48 298.586 L4123.48 312.66 Q4123.48 315.831 4124.34 316.734 Q4125.22 317.637 4127.88 317.637 L4132.25 317.637 L4132.25 321.202 L4127.88 321.202 Q4122.95 321.202 4121.07 319.373 Q4119.2 317.521 4119.2 312.66 L4119.2 298.586 L4116.07 298.586 L4116.07 295.276 L4119.2 295.276 L4119.2 287.915 L4123.48 287.915 Z" fill="#000000" fill-rule="evenodd" fill-opacity="1"></path><path clip-path="url(#clip120)" d="M4137.85 295.276 L4142.11 295.276 L4142.11 321.202 L4137.85 321.202 L4137.85 295.276 M4137.85 285.183 L4142.11 285.183 L4142.11 290.577 L4137.85 290.577 L4137.85 285.183 Z" fill="#000000" fill-rule="evenodd" fill-opacity="1"></path><path clip-path="url(#clip120)" d="M4171.21 300.253 Q4172.81 297.382 4175.03 296.017 Q4177.25 294.651 4180.26 294.651 Q4184.31 294.651 4186.51 297.498 Q4188.71 300.322 4188.71 305.553 L4188.71 321.202 L4184.43 321.202 L4184.43 305.692 Q4184.43 301.966 4183.11 300.16 Q4181.79 298.354 4179.08 298.354 Q4175.77 298.354 4173.85 300.554 Q4171.93 302.753 4171.93 306.549 L4171.93 321.202 L4167.65 321.202 L4167.65 305.692 Q4167.65 301.942 4166.33 300.16 Q4165.01 298.354 4162.25 298.354 Q4158.99 298.354 4157.07 300.577 Q4155.15 302.776 4155.15 306.549 L4155.15 321.202 L4150.86 321.202 L4150.86 295.276 L4155.15 295.276 L4155.15 299.304 Q4156.6 296.919 4158.64 295.785 Q4160.68 294.651 4163.48 294.651 Q4166.3 294.651 4168.27 296.086 Q4170.26 297.521 4171.21 300.253 Z" fill="#000000" fill-rule="evenodd" fill-opacity="1"></path><path clip-path="url(#clip120)" d="M4197.21 295.276 L4201.46 295.276 L4201.46 321.202 L4197.21 321.202 L4197.21 295.276 M4197.21 285.183 L4201.46 285.183 L4201.46 290.577 L4197.21 290.577 L4197.21 285.183 Z" fill="#000000" fill-rule="evenodd" fill-opacity="1"></path><path clip-path="url(#clip120)" d="M4226.9 296.04 L4226.9 300.067 Q4225.1 299.141 4223.15 298.679 Q4221.21 298.216 4219.13 298.216 Q4215.96 298.216 4214.36 299.188 Q4212.78 300.16 4212.78 302.104 Q4212.78 303.586 4213.92 304.442 Q4215.05 305.276 4218.48 306.04 L4219.94 306.364 Q4224.47 307.336 4226.37 309.118 Q4228.29 310.878 4228.29 314.049 Q4228.29 317.66 4225.42 319.766 Q4222.58 321.873 4217.58 321.873 Q4215.49 321.873 4213.22 321.456 Q4210.98 321.063 4208.48 320.252 L4208.48 315.854 Q4210.84 317.081 4213.13 317.706 Q4215.42 318.308 4217.67 318.308 Q4220.68 318.308 4222.3 317.29 Q4223.92 316.248 4223.92 314.373 Q4223.92 312.637 4222.74 311.711 Q4221.58 310.785 4217.62 309.928 L4216.14 309.581 Q4212.18 308.748 4210.42 307.035 Q4208.66 305.299 4208.66 302.29 Q4208.66 298.632 4211.26 296.642 Q4213.85 294.651 4218.62 294.651 Q4220.98 294.651 4223.06 294.998 Q4225.15 295.345 4226.9 296.04 Z" fill="#000000" fill-rule="evenodd" fill-opacity="1"></path><path clip-path="url(#clip120)" d="M4257.25 307.174 L4257.25 309.257 L4237.67 309.257 Q4237.95 313.655 4240.31 315.97 Q4242.69 318.262 4246.93 318.262 Q4249.38 318.262 4251.67 317.66 Q4253.99 317.058 4256.26 315.854 L4256.26 319.882 Q4253.96 320.854 4251.56 321.364 Q4249.15 321.873 4246.67 321.873 Q4240.47 321.873 4236.83 318.262 Q4233.22 314.651 4233.22 308.493 Q4233.22 302.128 4236.65 298.401 Q4240.1 294.651 4245.93 294.651 Q4251.16 294.651 4254.2 298.03 Q4257.25 301.387 4257.25 307.174 M4252.99 305.924 Q4252.95 302.429 4251.02 300.345 Q4249.13 298.262 4245.98 298.262 Q4242.41 298.262 4240.26 300.276 Q4238.13 302.29 4237.81 305.947 L4252.99 305.924 Z" fill="#000000" fill-rule="evenodd" fill-opacity="1"></path><path clip-path="url(#clip120)" d="M4279.27 299.257 Q4278.55 298.841 4277.69 298.655 Q4276.86 298.447 4275.84 298.447 Q4272.23 298.447 4270.28 300.808 Q4268.36 303.146 4268.36 307.544 L4268.36 321.202 L4264.08 321.202 L4264.08 295.276 L4268.36 295.276 L4268.36 299.304 Q4269.71 296.942 4271.86 295.808 Q4274.01 294.651 4277.09 294.651 Q4277.53 294.651 4278.06 294.72 Q4278.59 294.767 4279.24 294.882 L4279.27 299.257 Z" fill="#000000" fill-rule="evenodd" fill-opacity="1"></path><path clip-path="url(#clip120)" d="M4300.26 296.04 L4300.26 300.067 Q4298.46 299.141 4296.51 298.679 Q4294.57 298.216 4292.48 298.216 Q4289.31 298.216 4287.71 299.188 Q4286.14 300.16 4286.14 302.104 Q4286.14 303.586 4287.27 304.442 Q4288.41 305.276 4291.83 306.04 L4293.29 306.364 Q4297.83 307.336 4299.73 309.118 Q4301.65 310.878 4301.65 314.049 Q4301.65 317.66 4298.78 319.766 Q4295.93 321.873 4290.93 321.873 Q4288.85 321.873 4286.58 321.456 Q4284.33 321.063 4281.83 320.252 L4281.83 315.854 Q4284.2 317.081 4286.49 317.706 Q4288.78 318.308 4291.02 318.308 Q4294.03 318.308 4295.65 317.29 Q4297.27 316.248 4297.27 314.373 Q4297.27 312.637 4296.09 311.711 Q4294.94 310.785 4290.98 309.928 L4289.5 309.581 Q4285.54 308.748 4283.78 307.035 Q4282.02 305.299 4282.02 302.29 Q4282.02 298.632 4284.61 296.642 Q4287.21 294.651 4291.97 294.651 Q4294.33 294.651 4296.42 294.998 Q4298.5 295.345 4300.26 296.04 Z" fill="#000000" fill-rule="evenodd" fill-opacity="1"></path><path clip-path="url(#clip120)" d="M4309.03 315.322 L4313.92 315.322 L4313.92 321.202 L4309.03 321.202 L4309.03 315.322 Z" fill="#000000" fill-rule="evenodd" fill-opacity="1"></path><path clip-path="url(#clip120)" d="M4337.71 289.813 Q4332.62 289.813 4329.61 293.609 Q4326.63 297.405 4326.63 303.956 Q4326.63 310.484 4329.61 314.28 Q4332.62 318.077 4337.71 318.077 Q4342.81 318.077 4345.77 314.28 Q4348.76 310.484 4348.76 303.956 Q4348.76 297.405 4345.77 293.609 Q4342.81 289.813 4337.71 289.813 M4337.71 286.017 Q4344.98 286.017 4349.33 290.901 Q4353.69 295.762 4353.69 303.956 Q4353.69 312.128 4349.33 317.012 Q4344.98 321.873 4337.71 321.873 Q4330.42 321.873 4326.05 317.012 Q4321.7 312.151 4321.7 303.956 Q4321.7 295.762 4326.05 290.901 Q4330.42 286.017 4337.71 286.017 Z" fill="#000000" fill-rule="evenodd" fill-opacity="1"></path><path clip-path="url(#clip120)" d="M4371.72 291.248 L4365.38 308.447 L4378.08 308.447 L4371.72 291.248 M4369.08 286.642 L4374.38 286.642 L4387.55 321.202 L4382.69 321.202 L4379.54 312.336 L4363.96 312.336 L4360.82 321.202 L4355.89 321.202 L4369.08 286.642 Z" fill="#000000" fill-rule="evenodd" fill-opacity="1"></path><path clip-path="url(#clip120)" d="M4408.64 299.211 L4408.64 285.183 L4412.9 285.183 L4412.9 321.202 L4408.64 321.202 L4408.64 317.313 Q4407.3 319.627 4405.24 320.762 Q4403.2 321.873 4400.33 321.873 Q4395.63 321.873 4392.67 318.123 Q4389.73 314.373 4389.73 308.262 Q4389.73 302.151 4392.67 298.401 Q4395.63 294.651 4400.33 294.651 Q4403.2 294.651 4405.24 295.785 Q4407.3 296.896 4408.64 299.211 M4394.13 308.262 Q4394.13 312.961 4396.05 315.646 Q4397.99 318.308 4401.37 318.308 Q4404.75 318.308 4406.7 315.646 Q4408.64 312.961 4408.64 308.262 Q4408.64 303.563 4406.7 300.901 Q4404.75 298.216 4401.37 298.216 Q4397.99 298.216 4396.05 300.901 Q4394.13 303.563 4394.13 308.262 Z" fill="#000000" fill-rule="evenodd" fill-opacity="1"></path><path clip-path="url(#clip120)" d="M4433.45 308.169 Q4428.29 308.169 4426.3 309.35 Q4424.31 310.53 4424.31 313.378 Q4424.31 315.646 4425.79 316.989 Q4427.3 318.308 4429.87 318.308 Q4433.41 318.308 4435.54 315.808 Q4437.69 313.285 4437.69 309.118 L4437.69 308.169 L4433.45 308.169 M4441.95 306.41 L4441.95 321.202 L4437.69 321.202 L4437.69 317.266 Q4436.23 319.627 4434.06 320.762 Q4431.88 321.873 4428.73 321.873 Q4424.75 321.873 4422.39 319.651 Q4420.05 317.405 4420.05 313.655 Q4420.05 309.28 4422.97 307.058 Q4425.91 304.836 4431.72 304.836 L4437.69 304.836 L4437.69 304.419 Q4437.69 301.479 4435.75 299.882 Q4433.82 298.262 4430.33 298.262 Q4428.11 298.262 4426 298.794 Q4423.89 299.327 4421.95 300.391 L4421.95 296.456 Q4424.29 295.554 4426.49 295.114 Q4428.69 294.651 4430.77 294.651 Q4436.39 294.651 4439.17 297.567 Q4441.95 300.484 4441.95 306.41 Z" fill="#000000" fill-rule="evenodd" fill-opacity="1"></path><path clip-path="url(#clip120)" d="M4470.91 300.253 Q4472.51 297.382 4474.73 296.017 Q4476.95 294.651 4479.96 294.651 Q4484.01 294.651 4486.21 297.498 Q4488.41 300.322 4488.41 305.553 L4488.41 321.202 L4484.13 321.202 L4484.13 305.692 Q4484.13 301.966 4482.81 300.16 Q4481.49 298.354 4478.78 298.354 Q4475.47 298.354 4473.55 300.554 Q4471.63 302.753 4471.63 306.549 L4471.63 321.202 L4467.34 321.202 L4467.34 305.692 Q4467.34 301.942 4466.02 300.16 Q4464.7 298.354 4461.95 298.354 Q4458.69 298.354 4456.76 300.577 Q4454.84 302.776 4454.84 306.549 L4454.84 321.202 L4450.56 321.202 L4450.56 295.276 L4454.84 295.276 L4454.84 299.304 Q4456.3 296.919 4458.34 295.785 Q4460.38 294.651 4463.18 294.651 Q4466 294.651 4467.97 296.086 Q4469.96 297.521 4470.91 300.253 Z" fill="#000000" fill-rule="evenodd" fill-opacity="1"></path></svg>